/* XPM */
static char *result[] = {
/* columns rows colors chars-per-pixel */
"32 32 8 1 ",
"  c #311C2A",
". c #482823",
"X c #45283C",
"o c #663931",
"O c #8F563B",
"+ c #CBDBFC",
"@ c white",
"# c None",
/* pixels */
"################################",
"################################",
"###########+++++################",
"########+++@@@@@++++++++########",
"######++@@@@@@@@@@@@@@@@++######",
"#####+@@@@+@@@@@+@@@@@@@@@+#####",
"####+@@+++++++++++@@@@@+@@@+####",
"####+@+++OOOOOOOOO++@@@++O+#####",
"#####OOOOOOOOOOOOOOO++++OOo#####",
"#####OooOoOoOOOOooOoOOoOOOo#####",
"#####OoOOoOooOOOooOoOooOoOo#####",
"#####OOOOOOOOOOOOOOOOOOOOOo#####",
"#####OOOOOOOOOOOOOOOOOOOOOo#####",
"#####OOoOooOOOOOoOooOOOooOo#####",
"#####OooOOoOooOOoOooOoOoOOo#####",
"#####OOOOOOOOOOOOOOOOOOOOOo#####",
"#####OOOOOOOOOOOOOOOOOOOOOo#####",
"#####ooOOOOOOOOOOOOOOOOOOoo#####",
"######oooooooooooooooooooo######",
"###############XX###############",
"###############oX###############",
"###############oo###############",
"###############..###############",
"###############..###############",
"###############..###############",
"###############  ###############",
"################################",
"################################",
"################################",
"################################",
"################################",
"################################"
};
