/* XPM */
static char *result[] = {
/* columns rows colors chars-per-pixel */
"64 128 14 1 ",
"  c black",
". c #050200",
"X c #7C4236",
"o c gray50",
"O c #98522B",
"+ c #FAAA4C",
"@ c #FBAA4C",
"# c #FBAB4D",
"$ c #FCAB4D",
"% c #FEAC4E",
"& c #FFAD4E",
"* c #6EC5ED",
"= c white",
"- c None",
/* pixels */
"----------------------------------------------------------------",
"----------------------------------------------------------------",
"----------------------------------------------------------------",
"----------------------------------------------------------------",
"----------------------------------------------------------------",
"----------------------------------------------------------------",
"----------------------------------------------------------------",
"----------------------------------------------------------------",
"----------------------------------------------------------------",
"----------------------------------------------------------------",
"----------------------------------------------------------------",
"----------------------------------------------------------------",
"----------------------------------------------------------------",
"----------------------------------------------------------------",
"----------------------------------------------------------------",
"----------------------------------------------------------------",
"----------------------------------------------------------------",
"----------------------------------------------------------------",
"----------------------------------------------------------------",
"----------------------------------------------------------------",
"----------------------------------------------------------------",
"----------------------------------------------------------------",
"----------------------------------------------------------------",
"----------------------------------------------------------------",
"----------------------------------------------------------------",
"----------------------------------------------------------------",
"----------------------------------------------------------------",
"----------------------------------------------------------------",
"----------------------------------------------------------------",
"----------------------------------------------------------------",
"----------------------------------------------------------------",
"----------------------------------------------------------------",
"----------------------------------------------------------------",
"----------------------------------------------------------------",
"----------------------------------------------------------------",
"----------------------------------------------------------------",
"----------------------------------------------------------------",
"----------------------------------------------------------------",
"----------------------------------------------------------------",
"----------------------------------------------------------------",
"----------------------------------------------------------------",
"----------------------------------------------------------------",
"----------------------------------------------------------------",
"----------------------------------------------------------------",
"----------------------------------------------------------------",
"----------------------------------------------------------------",
"----------------------------------------------------------------",
"----------------------------------------------------------------",
"----------------------------------------------------------------",
"----------------------------------------------------------------",
"----------------------------------------------------------------",
"----------------------------------------------------------------",
"----------------------------------------------------------------",
"----------------------------------------------------------------",
"----------------------------------------------------------------",
"----------------------------------------------------------------",
"----------------------------------------------------------------",
"-----------------------------       ----------------------------",
"--------------------------   XXXXXXX   -------------------------",
"------------------------  XXXXXXXXXXXXX  -----------------------",
"----------------------- XXXXXXXXXXXXXXXXX ----------------------",
"---------------------- XXXXXXXXX XXXXXXXXX ---------------------",
"--------------------- XXXXXXX   =  XXXXXXX ---------------------",
"--------------------- XXX    ======   XXXX ---------------------",
"--------------------- X   ============   X ---------------------",
"--------------------- XX ===============   ---------------------",
"--------------------- XX ===   ===   === X ---------------------",
"--------------------- XX == === = === == X ---------------------",
"--------------------- XX    = =   = =    X ---------------------",
"--------------------- XX == === = === == X ---------------------",
"--------------------- XX ===   = =   === X ---------------------",
"--------------------- XX ======= ======= X ---------------------",
"--------------------- XX ====== ======== X ---------------------",
"--------------------- XXX ======  ===== XX ---------------------",
"--------------------- XXX ============= XX ---------------------",
"--------------------- XXXX =========== XXX ---------------------",
"--------------------- XXXX ====   ===  XXX ---------------------",
"--------------------- XXXXX ========  XXX  ---------------------",
"--------------------- XXXXXX  ====  XXXXX ----------------------",
"--------------------- XXXXXXX       XXXXX ----------------------",
"--------------------- XXXXXXXX === XXXXXX ----------------------",
"--------------------- XXXXXXXX &&& XXXXXX ----------------------",
"---------------------          &&&    X   ----------------------",
"------------------------    &&&&&&&&&&  ------------------------",
"-----------------------  &&&&&&&&&&&&&&& -----------------------",
"----------------------  &&&&&&&&&& &&&&&& -------------    -----",
"---------------------- &&&&&&&&&&&& &&&&&& ----------- ==== ----",
"---------------------- &&&&&&&&&                               -",
"--------------------- &&&&&&&%&  o OOOOOOooooooooooooooooooooo  ",
"--------------------- &&& $#   O o OOOOOOOOOOOOOOOOOOOOOOOOOOO  ",
"--------------------- &&&   OOOO   oo                          -",
"--------------------- &&@ OOOOO      &  &&&&& ---- &&&& --------",
"--------------------- &&+ OOOO &  =o & - &&&&& -- &&&& ---------",
"--------------------- &&& OOO & =   =  -- &&&&&  &&&& ----------",
"--------------------- .&&& OO   =====  --- &&&&&&&&& -----------",
"---------------------  &&&&   && =   & ---- &&&&&&& ------------",
"--------------------- O &&&& &&&& &&&& ----- &&&&& -------------",
"--------------------- OO &&&&&&& &&&&& ------ &&& --------------",
"--------------------- OO  &&&&& &&&&&& -------   ---------------",
"--------------------- O -  &&& &&&&&&& -------------------------",
"---------------------  -- *   ******** -------------------------",
"------------------------- ************ -------------------------",
"------------------------- ************ -------------------------",
"------------------------- ****    **** -------------------------",
"------------------------- **** -- **** -------------------------",
"------------------------- **** -- **** -------------------------",
"------------------------- **** -- **** -------------------------",
"------------------------- **** -- **** -------------------------",
"------------------------- **** -- **** -------------------------",
"------------------------- **** -- **** -------------------------",
"------------------------- **** -- **** -------------------------",
"------------------------- **** -- **** -------------------------",
"------------------------- **** -- **** -------------------------",
"------------------------- **** -- **** -------------------------",
"------------------------- **** -- **** -------------------------",
"------------------------- ***  -- **** -------------------------",
"------------------------- ***  --- *** -------------------------",
"------------------------- *** ---- *** -------------------------",
"------------------------- *** ---- *** -------------------------",
"------------------------- *** ---- *** -------------------------",
"------------------------- *** ---- *** -------------------------",
"-------------------------- ** ---- *** -------------------------",
"------------------------  *** ---  *** -------------------------",
"----------------------- ****** - ****** ------------------------",
"---------------------- ******* - ****** ------------------------",
"---------------------- ****** --- ****  ------------------------",
"-----------------------      -----     -------------------------",
"----------------------------------------------------------------"
};
