/* XPM */
static char *result[] = {
/* columns rows colors chars-per-pixel */
"64 128 77 1 ",
"  c black",
". c #010000",
"X c #010101",
"o c #020101",
"O c #030201",
"+ c #050201",
"@ c #050302",
"# c #060302",
"$ c #070402",
"% c #040404",
"& c #0D0704",
"* c #0F0804",
"= c gray6",
"- c #120905",
"; c #140B06",
": c #180D06",
"> c #110E0C",
", c #211209",
"< c #24180B",
"1 c #2C1B0D",
"2 c #2D1A0E",
"3 c #2C1E14",
"4 c #371D10",
"5 c #391F10",
"6 c #3A2010",
"7 c #373737",
"8 c gray22",
"9 c #432513",
"0 c #552E18",
"q c #593019",
"w c #59381A",
"e c #69391E",
"r c #6A3B1E",
"t c #784222",
"y c #664330",
"u c #7C4236",
"i c #5F5F5F",
"p c #605E5D",
"a c #606060",
"s c #6F6A67",
"d c #777777",
"f c #804624",
"g c #854825",
"h c #884A26",
"j c #8A4B27",
"k c #8B4B27",
"l c #894D2A",
"z c #894D2B",
"x c #8A4E2B",
"c c #8D5F2B",
"v c #875030",
"b c #8B5232",
"n c #885436",
"m c #895739",
"M c #88593E",
"N c #895F48",
"B c #84614C",
"V c #896855",
"C c #846B5C",
"Z c #836D60",
"A c #827771",
"S c #817C79",
"D c #E79846",
"F c #E89D47",
"G c #F4A64B",
"H c #FBAA4D",
"J c #FBAB4D",
"K c #FCAB4F",
"L c #FDAC4E",
"P c #FEAC4E",
"I c #FEAD4E",
"U c #FFAD4E",
"Y c #FEAC4F",
"T c #6EC5ED",
"R c gray99",
"E c white",
"W c None",
/* pixels */
"WWWWWWWWWWWWWWWWWWWWWWWWWWWWWWWWWWWWWWWWWWWWWWWWWWWWWWWWWWWWWWWW",
"WWWWWWWWWWWWWWWWWWWWWWWWWWWWWWWWWWWWWWWWWWWWWWWWWWWWWWWWWWWWWWWW",
"WWWWWWWWWWWWWWWWWWWWWWWWWWWWWWWWWWWWWWWWWWWWWWWWWWWWWWWWWWWWWWWW",
"WWWWWWWWWWWWWWWWWWWWWWWWWWWWWWWWWWWWWWWWWWWWWWWWWWWWWWWWWWWWWWWW",
"WWWWWWWWWWWWWWWWWWWWWWWWWWWWWWWWWWWWWWWWWWWWWWWWWWWWWWWWWWWWWWWW",
"WWWWWWWWWWWWWWWWWWWWWWWWWWWWWWWWWWWWWWWWWWWWWWWWWWWWWWWWWWWWWWWW",
"WWWWWWWWWWWWWWWWWWWWWWWWWWWWWWWWWWWWWWWWWWWWWWWWWWWWWWWWWWWWWWWW",
"WWWWWWWWWWWWWWWWWWWWWWWWWWWWWWWWWWWWWWWWWWWWWWWWWWWWWWWWWWWWWWWW",
"WWWWWWWWWWWWWWWWWWWWWWWWWWWWWWWWWWWWWWWWWWWWWWWWWWWWWWWWWWWWWWWW",
"WWWWWWWWWWWWWWWWWWWWWWWWWWWWWWWWWWWWWWWWWWWWWWWWWWWWWWWWWWWWWWWW",
"WWWWWWWWWWWWWWWWWWWWWWWWWWWWWWWWWWWWWWWWWWWWWWWWWWWWWWWWWWWWWWWW",
"WWWWWWWWWWWWWWWWWWWWWWWWWWWWWWWWWWWWWWWWWWWWWWWWWWWWWWWWWWWWWWWW",
"WWWWWWWWWWWWWWWWWWWWWWWWWWWWWWWWWWWWWWWWWWWWWWWWWWWWWWWWWWWWWWWW",
"WWWWWWWWWWWWWWWWWWWWWWWWWWWWWWWWWWWWWWWWWWWWWWWWWWWWWWWWWWWWWWWW",
"WWWWWWWWWWWWWWWWWWWWWWWWWWWWWWWWWWWWWWWWWWWWWWWWWWWWWWWWWWWWWWWW",
"WWWWWWWWWWWWWWWWWWWWWWWWWWWWWWWWWWWWWWWWWWWWWWWWWWWWWWWWWWWWWWWW",
"WWWWWWWWWWWWWWWWWWWWWWWWWWWWWWWWWWWWWWWWWWWWWWWWWWWWWWWWWWWWWWWW",
"WWWWWWWWWWWWWWWWWWWWWWWWWWWWWWWWWWWWWWWWWWWWWWWWWWWWWWWWWWWWWWWW",
"WWWWWWWWWWWWWWWWWWWWWWWWWWWWWWWWWWWWWWWWWWWWWWWWWWWWWWWWWWWWWWWW",
"WWWWWWWWWWWWWWWWWWWWWWWWWWWWWWWWWWWWWWWWWWWWWWWWWWWWWWWWWWWWWWWW",
"WWWWWWWWWWWWWWWWWWWWWWWWWWWWWWWWWWWWWWWWWWWWWWWWWWWWWWWWWWWWWWWW",
"WWWWWWWWWWWWWWWWWWWWWWWWWWWWWWWWWWWWWWWWWWWWWWWWWWWWWWWWWWWWWWWW",
"WWWWWWWWWWWWWWWWWWWWWWWWWWWWWWWWWWWWWWWWWWWWWWWWWWWWWWWWWWWWWWWW",
"WWWWWWWWWWWWWWWWWWWWWWWWWWWWWWWWWWWWWWWWWWWWWWWWWWWWWWWWWWWWWWWW",
"WWWWWWWWWWWWWWWWWWWWWWWWWWWWWWWWWWWWWWWWWWWWWWWWWWWWWWWWWWWWWWWW",
"WWWWWWWWWWWWWWWWWWWWWWWWWWWWWWWWWWWWWWWWWWWWWWWWWWWWWWWWWWWWWWWW",
"WWWWWWWWWWWWWWWWWWWWWWWWWWWWWWWWWWWWWWWWWWWWWWWWWWWWWWWWWWWWWWWW",
"WWWWWWWWWWWWWWWWWWWWWWWWWWWWWWWWWWWWWWWWWWWWWWWWWWWWWWWWWWWWWWWW",
"WWWWWWWWWWWWWWWWWWWWWWWWWWWWWWWWWWWWWWWWWWWWWWWWWWWWWWWWWWWWWWWW",
"WWWWWWWWWWWWWWWWWWWWWWWWWWWWWWWWWWWWWWWWWWWWWWWWWWWWWWWWWWWWWWWW",
"WWWWWWWWWWWWWWWWWWWWWWWWWWWWWWWWWWWWWWWWWWWWWWWWWWWWWWWWWWWWWWWW",
"WWWWWWWWWWWWWWWWWWWWWWWWWWWWWWWWWWWWWWWWWWWWWWWWWWWWWWWWWWWWWWWW",
"WWWWWWWWWWWWWWWWWWWWWWWWWWWWWWWWWWWWWWWWWWWWWWWWWWWWWWWWWWWWWWWW",
"WWWWWWWWWWWWWWWWWWWWWWWWWWWWWWWWWWWWWWWWWWWWWWWWWWWWWWWWWWWWWWWW",
"WWWWWWWWWWWWWWWWWWWWWWWWWWWWWWWWWWWWWWWWWWWWWWWWWWWWWWWWWWWWWWWW",
"WWWWWWWWWWWWWWWWWWWWWWWWWWWWWWWWWWWWWWWWWWWWWWWWWWWWWWWWWWWWWWWW",
"WWWWWWWWWWWWWWWWWWWWWWWWWWWWWWWWWWWWWWWWWWWWWWWWWWWWWWWWWWWWWWWW",
"WWWWWWWWWWWWWWWWWWWWWWWWWWWWWWWWWWWWWWWWWWWWWWWWWWWWWWWWWWWWWWWW",
"WWWWWWWWWWWWWWWWWWWWWWWWWWWWWWWWWWWWWWWWWWWWWWWWWWWWWWWWWWWWWWWW",
"WWWWWWWWWWWWWWWWWWWWWWWWWWWWWWWWWWWWWWWWWWWWWWWWWWWWWWWWWWWWWWWW",
"WWWWWWWWWWWWWWWWWWWWWWWWWWWWWWWWWWWWWWWWWWWWWWWWWWWWWWWWWWWWWWWW",
"WWWWWWWWWWWWWWWWWWWWWWWWWWWWWWWWWWWWWWWWWWWWWWWWWWWWWWWWWWWWWWWW",
"WWWWWWWWWWWWWWWWWWWWWWWWWWWWWWWWWWWWWWWWWWWWWWWWWWWWWWWWWWWWWWWW",
"WWWWWWWWWWWWWWWWWWWWWWWWWWWWWWWWWWWWWWWWWWWWWWWWWWWWWWWWWWWWWWWW",
"WWWWWWWWWWWWWWWWWWWWWWWWWWWWWWWWWWWWWWWWWWWWWWWWWWWWWWWWWWWWWWWW",
"WWWWWWWWWWWWWWWWWWWWWWWWWWWWWWWWWWWWWWWWWWWWWWWWWWWWWWWWWWWWWWWW",
"WWWWWWWWWWWWWWWWWWWWWWWWWWWWWWWWWWWWWWWWWWWWWWWWWWWWWWWWWWWWWWWW",
"WWWWWWWWWWWWWWWWWWWWWWWWWWWWWWWWWWWWWWWWWWWWWWWWWWWWWWWWWWWWWWWW",
"WWWWWWWWWWWWWWWWWWWWWWWWWWWWWWWWWWWWWWWWWWWWWWWWWWWWWWWWWWWWWWWW",
"WWWWWWWWWWWWWWWWWWWWWWWWWWWWWWWWWWWWWWWWWWWWWWWWWWWWWWWWWWWWWWWW",
"WWWWWWWWWWWWWWWWWWWWWWWWWWWWWWWWWWWWWWWWWWWWWWWWWWWWWWWWWWWWWWWW",
"WWWWWWWWWWWWWWWWWWWWWWWWWWWWWWWWWWWWWWWWWWWWWWWWWWWWWWWWWWWWWWWW",
"WWWWWWWWWWWWWWWWWWWWWWWWWWWWWWWWWWWWWWWWWWWWWWWWWWWWWWWWWWWWWWWW",
"WWWWWWWWWWWWWWWWWWWWWWWWWWWWWWWWWWWWWWWWWWWWWWWWWWWWWWWWWWWWWWWW",
"WWWWWWWWWWWWWWWWWWWWWWWWWWWWWWWWWWWWWWWWWWWWWWWWWWWWWWWWWWWWWWWW",
"WWWWWWWWWWWWWWWWWWWWWWWWWWWWWWWWWWWWWWWWWWWWWWWWWWWWWWWWWWWWWWWW",
"WWWWWWWWWWWWWWWWWWWWWWWWWWWWWWWWWWWWWWWWWWWWWWWWWWWWWWWWWWWWWWWW",
"WWWWWWWWWWWWWWWWWWWWWWWWWWWW       WWWWWWWWWWWWWWWWWWWWWWWWWWWWW",
"WWWWWWWWWWWWWWWWWWWWWWWWW   uuuuuuu   WWWWWWWWWWWWWWWWWWWWWWWWWW",
"WWWWWWWWWWWWWWWWWWWWWWW  uuuuuuuuuuuuu  WWWWWWWWWWWWWWWWWWWWWWWW",
"WWWWWWWWWWWWWWWWWWWWWW uuuuuuuuuuuuuuuuu WWWWWWWWWWWWWWWWWWWWWWW",
"WWWWWWWWWWWWWWWWWWWWW uuuuuuuuu uuuuuuuuu WWWWWWWWWWWWWWWWWWWWWW",
"WWWWWWWWWWWWWWWWWWWWW uuuuuuu  E   uuuuuuu WWWWWWWWWWWWWWWWWWWWW",
"WWWWWWWWWWWWWWWWWWWWW uuuu   EEEEEE    uuu WWWWWWWWWWWWWWWWWWWWW",
"WWWWWWWWWWWWWWWWWWWWW u   EEEEEEEEEEEE   u WWWWWWWWWWWWWWWWWWWWW",
"WWWWWWWWWWWWWWWWWWWWW   EEEEEEEEEEEEEEE uu WWWWWWWWWWWWWWWWWWWWW",
"WWWWWWWWWWWWWWWWWWWWW u EEE   EEE   EEE uu WWWWWWWWWWWWWWWWWWWWW",
"WWWWWWWWWWWWWWWWWWWWW u EE EEE E EEE EE uu WWWWWWWWWWWWWWWWWWWWW",
"WWWWWWWWWWWWWWWWWWWWW u    E E   E E    uu WWWWWWWWWWWWWWWWWWWWW",
"WWWWWWWWWWWWWWWWWWWWW u EE EEE E EEE EE uu WWWWWWWWWWWWWWWWWWWWW",
"WWWWWWWWWWWWWWWWWWWWW u EEE   E E   EEE uu WWWWWWWWWWWWWWWWWWWWW",
"WWWWWWWWWWWWWWWWWWWWW u EEEEEEE EEEEEEE uu WWWWWWWWWWWWWWWWWWWWW",
"WWWWWWWWWWWWWWWWWWWWW u EEEEEEEE EEEEEE uu WWWWWWWWWWWWWWWWWWWWW",
"WWWWWWWWWWWWWWWWWWWWW uu EEEEE  EEEEEE uuu WWWWWWWWWWWWWWWWWWWWW",
"WWWWWWWWWWWWWWWWWWWWW uu EEEEEEEEEEEEE uuu WWWWWWWWWWWWWWWWWWWWW",
"WWWWWWWWWWWWWWWWWWWWW uuu EEEEEEEEEEE uuuu WWWWWWWWWWWWWWWWWWWWW",
"WWWWWWWWWWWWWWWWWWWWW uuu  EEE   EEEE uuuu WWWWWWWWWWWWWWWWWWWWW",
"WWWWWWWWWWWWWWWWWWWWW  uuu  EEEEEEEE uuuuu WWWWWWWWWWWWWWWWWWWWW",
"WWWWWWWWWWWWWWWWWWWWWW uuuuu  EEEE  uuuuuu WWWWWWWWWWWWWWWWWWWWW",
"WWWWWWWWWWWWWWWWWWWWWW uuuuu       uuuuuuu WWWWWWWWWWWWWWWWWWWWW",
"WWWWWWWWWWWWWWWWWWWWWW uuuuuu EEE uuuuuuuu WWWWWWWWWWWWWWWWWWWWW",
"WWWWWWWWWWWWWWWWWWWWWW uuuuuu UUU uuuuuuuu WWWWWWWWWWWWWWWWWWWWW",
"WWWWWWWWWWWWWWWWWWWWWW   u    UUU          WWWWWWWWWWWWWWWWWWWWW",
"WWWWWWWWWWWWWWWWWWWWWWWW  UUUUUUUUUU    WWWWWWWWWWWWWWWWWWWWWWWW",
"WWWWWWWWWWWWWWWWWWWWWWW UUUUUUUUUUUUUUU  WWWWWWWWWWWWWWWWWWWWWWW",
"WWWWWWWWWWWWWWWWWWWWWW  UUUUUUUUUUUUUUUU  WWWWWWWWWWWWWWWWWWWWWW",
"WWWWWWWWWWWWWWWWWWWWW UUUUUUUUUUUUUUUUUUU WWWWWWWWWWWWWWWWWWWWWW",
"WWWWWWWWWWWWWWWWWWWWW UUUUUUUUUUUUUUUUUUU WWWWWWWWWWWWWWWWWWWWWW",
"WWWWWWWWWWWWWWWWWWWWW UUUUUUUUUUUUUUUUUUUU WWWWWWWWWWWWWWWWWWWWW",
"WWWWWWWWWWWWWWWWWWWWW UUU UUUUUUUUUUUU UUU WWWWWWWWWWWWWWWWWWWWW",
"WWWWWWWWWWWWWWWWWWWWW UUU UUUUUUUUUUUU UUU WWWWWWWWWWWWWWWWWWWWW",
"WWWWWWWWWWWWWWWWWWWWW UUU UUUUUUUUUUUU UUU WWWWWWWWWWWWWWWWWWWWW",
"WWWWWWWWWWWWWWWWWWWWW UUU UUUUUUUUUUUU UUU WWWWWWWWWWWWWWWWWWWWW",
"WWWWWWWWWWWWWWWWWWWWW UUU UUUUUUUUUUUU UUU WWWWWWWWWWWWWWWWWWWWW",
"WWWWWWWWWWWWWWWWWWWWW UUU UUUUUUUUUUUU PUP WWWWWWWWWWWWWWWWWWWWW",
"WWWWWWWWWWWWWWWWWWWWW UUU UUUUUUUUUUUU HUJ WWWWWWWWWWWWWWWWWWWWW",
"WWWWWWWWWWWWWWWWWWWWW UUU UUUUUUUUUUUU DIL WWWWWWWWWWWWWWWWWWWWW",
"WWWWWWWWWWWWWWWWWWWWW UUU UUUUUUUUUUUU 1UG WWWWWWWWWWWWWWWWWWWWW",
"WWWWWWWWWWWWWWWWWWWWW UUU UUUUUUUUUUUU ,cF WWWWWWWWWWWWWWWWWWWWW",
"WWWWWWWWWWWWWWWWWWWWW UUU UUUUUUUUUUUU r<F WWWWWWWWWWWWWWWWWWWWW",
"WWWWWWWWWWWWWWWWWWWWW UUU TTTTTTTTTTTT 92w WWWWWWWWWWWWWWWWWWWWW",
"WWWWWWWWWWWWWWWWWWWWW UUU TTTTTTTTTTTT >s:@WWWWWWWWWWWWWWWWWWWWW",
"WWWWWWWWWWWWWWWWWWWWW UUU TTTTTTTTTTTT  i3*WWWWWWWWWWWWWWWWWWWWW",
"WWWWWWWWWWWWWWWWWWWWW     TTTT    TTTT  7C* WWWWWWWWWWWWWWWWWWWW",
"WWWWWWWWWWWWWWWWWWWWWW EE TTTT WW TTTT K=S5oWWWWWWWWWWWWWWWWWWWW",
"WWWWWWWWWWWWWWWWWWWWW  EE TTTT WW TTTT Y im$WWWWWWWWWWWWWWWWWWWW",
"WWWWWWWWWWWWWWWWWWWWW EEE TTTT WW TTTT XW8v4 WWWWWWWWWWWWWWWWWWW",
"WWWWWWWWWWWWWWWWWWWWW     TTTT WW TTTT dR=Bg.WWWWWWWWWWWWWWWWWWW",
"WWWWWWWWWWWWWWWWWWWWWWWWW TTTT WW TTTT EE pl#WWWWWWWWWWWWWWWWWWW",
"WWWWWWWWWWWWWWWWWWWWWWWWW TTTT WW TTTT WEW7n0 WWWWWWWWWWWWWWWWWW",
"WWWWWWWWWWWWWWWWWWWWWWWWW TTTT WW TTTT    =Zh.WWWWWWWWWWWWWWWWWW",
"WWWWWWWWWWWWWWWWWWWWWWWWW TTTT WW TTTT WWW iz;OWWWWWWWWWWWWWWWWW",
"WWWWWWWWWWWWWWWWWWWWWWWWW TTTT WW TTTT WWWW7Me WWWWWWWWWWWWWWWWW",
"WWWWWWWWWWWWWWWWWWWWWWWWW TTTT WW TTTT WWWW=Aj.WWWWWWWWWWWWWWWWW",
"WWWWWWWWWWWWWWWWWWWWWWWWW TTTT WW TTTT WWWW ix6 WWWWWWWWWWWWWWWW",
"WWWWWWWWWWWWWWWWWWWWWWWWW TTTT WW  TTT WWWWW7Nt WWWWWWWWWWWWWWWW",
"WWWWWWWWWWWWWWWWWWWWWWWWW TTT WWW  TTT WWWWW=Sj+WWWWWWWWWWWWWWWW",
"WWWWWWWWWWWWWWWWWWWWWWWWW TTT WWWW TTT WWWWW abq WWWWWWWWWWWWWWW",
"WWWWWWWWWWWWWWWWWWWWWWWWW TTT WWWW TTT WWWWWW7Vf WWWWWWWWWWWWWWW",
"WWWWWWWWWWWWWWWWWWWWWWWWW TTT WWWW TTT WWWWWW=Sk-WWWWWWWWWWWWWWW",
"WWWWWWWWWWWWWWWWWWWWWWWWW TTT WWWW TTT WWWWWW ay& WWWWWWWWWWWWWW",
"WWWWWWWWWWWWWWWWWWWWWWWWW TTT WWWW TT WWWWWWWW%  WWWWWWWWWWWWWWW",
"WWWWWWWWWWWWWWWWWWWWWWWWW TTT  WWW TTT  WWWWWWW WWWWWWWWWWWWWWWW",
"WWWWWWWWWWWWWWWWWWWWWWWW TTTTTT W TTTTTT WWWWWWWWWWWWWWWWWWWWWWW",
"WWWWWWWWWWWWWWWWWWWWWWWW TTTTTT W TTTTTTT WWWWWWWWWWWWWWWWWWWWWW",
"WWWWWWWWWWWWWWWWWWWWWWWW  TTTT WWW TTTTTT WWWWWWWWWWWWWWWWWWWWWW",
"WWWWWWWWWWWWWWWWWWWWWWWWW     WWWWW      WWWWWWWWWWWWWWWWWWWWWWW",
"WWWWWWWWWWWWWWWWWWWWWWWWWWWWWWWWWWWWWWWWWWWWWWWWWWWWWWWWWWWWWWWW"
};
