/* XPM */
static char *result[] = {
/* columns rows colors chars-per-pixel */
"64 64 43 1 ",
"  c #9BADB7",
". c #9DAFB9",
"X c #C8D7E5",
"o c #CBDBFC",
"O c #D2E0EF",
"+ c #D2E1F0",
"@ c #DDEBFB",
"# c #EBEEF0",
"$ c #E3EBFD",
"% c #E7EEFE",
"& c #EFF2F3",
"* c #ECF1FE",
"= c #F0F2F3",
"- c #F3F4F5",
"; c #F5F6F7",
": c #F5F7F7",
"> c #F5F7F8",
", c #F0F4FE",
"< c #F3F7FE",
"1 c #F7F9F9",
"2 c #F5F9FD",
"3 c #F6F8FE",
"4 c #F6F9FE",
"5 c #F6F8FF",
"6 c #F9FAFA",
"7 c #FAFBFB",
"8 c #F9FBFE",
"9 c #F8FAFF",
"0 c #F9FBFF",
"q c #FBFCFC",
"w c #FAFCFE",
"e c #FBFCFF",
"r c #FCFCFD",
"t c #FDFDFD",
"y c #FCFDFE",
"u c #FDFDFE",
"i c #FCFDFF",
"p c #FDFDFF",
"a c #FDFEFE",
"s c #FDFEFF",
"d c #FEFEFE",
"f c #FEFEFF",
"g c white",
/* pixels */
"gggggggggsggggggiggggggggggggggggggggggggfgggggg<gggggggggggsggg",
"gggggggggggggggggggggggggggggggggggggggggggggggggggggggggggggggg",
"gggggggggggggggggggggggggggggggggggggggggggggggggggggggggggggggg",
"0gggggggggggggggggggggggogggggggggggggggggggggggggggggggoggggggg",
"ggggggggggggggggggggggogogggggggggg-rgggggggggggggggggogoggggggg",
"ggggggggggggggggggggggogoggggggggg-e*:ggggggggggggggggogoggggggg",
"ggggggggggggggggggggggogggggggggggguggggggggggggggggggoggggggggg",
"gggoooggggggggggggggggoggggggggggigggeggggggggggggggggoggggggggg",
"gggggggggggggggggggggggggggggggggs<ggggggggggggggggggggggggggggg",
"ggggooooggggggggggggggggggggggggg3gggggggggggggggggggggggggggggf",
"gggggggggggggggggggggggggggggggggggggggggggggggggggggggggggggggg",
"gggggggggggggggggggggggggggggggggggggggggggggggggggggggggggggggg",
"gggggggggggggggggggggggggggggggggggggggggggggggggggggggggggggggg",
"gggggggggggggggggggggggggggggggggggggdgdgggggggggggggggggggggggg",
"ggggggggggggggggggggggggggggggggggggggaggggggggggggggggggggggggg",
"9ggggggggggggggggggggggggggggggggggggggggggggggggggggggggggggggg",
"gggggggggggggggggggggggggggggggggggggggggggggggggggggggggggggggf",
"ggggggggggggggggggggggggggggggggggggg8Oggggggggggggggggggggggggg",
"gggggggggggggggggggggggggggggggggggggO8Ogggggggggggggggggggggggg",
"gggggggggggggggggggggggggggggggggggggg 8gggggggggggggggggggggggg",
"gggggggggggggggggggggggggggggggggggggggggggggggggggggggggggggggg",
"gggggggggggggggggggggggggggggggggggggggggggggggggggggggggggggggg",
"4ggggggggggggggggggggggggggggggggpggggggggggggggggggggggoooogggg",
"ggggggggggggggggggggggggggggggggggpggggggggggggggggggggggggggggg",
"ggggggggggggwXggggggggogggggggggg5ggggggggggggggggggggggggoooggg",
"gggggggggggg+w gggggggogggggggggggi>gggggggggggggggggggggggggggg",
"gggggqg*gggg8 ggggggggogoggggggggg7gfqgggggggggggggggggggggggggg",
"ggggggggggggggggggggggogogggggggggg&qggggggggggggggggggggggggggg",
"gggggf;gggggggggggggggggoggggggggggggggggggggggggggggggggggggggf",
"ggggg#<30ggggggggggggggggggggggggggggggggggggggggggggggggggggggg",
"ggggggg%eggggggggggggggggggggggggggggggggggggggggggggggggggggggg",
"ggggggggggggggggoggggggggggggggggggggggggggggggggggggggggggggggg",
"gggggggggggggggggogggggggggggggggggggggggggggggogggggggggggggggg",
"ggggggggggggggggoggggggggggggggggggggggggggggggggggggg3*eggggggg",
"ggggggggggggggggggggggggggggggggggggggggggggggggggggggge,e1ggggg",
"3gggggggggggggggggggggggggggggggggggggggggggggggggggggggg=g6gggg",
"ggggggggggggggggggggggggggggggggggggggggggggggggggggggggggfggggg",
"gggggggggggggggggggggggggggggggggggggggggggggggggg@ggggg3ftggggg",
"gggggggggggggggggggggggggggyggggggggggggggggggggg.2Ogggggggggggg",
"gggooogggggggggggggggggggg6ggggggggggggggggggggggwXggggggggggggg",
"gggggggggggggggggggggggggggggggggggggggggogggggggggggggggggggggg",
"ggggoooogggggggggggggggggggggggggggggggogogggggggggggggggggggggg",
"gggggggggggggggggggggggggggggggggggggggogogggggggggggggggggggggg",
"gggggggggggggggggggggggggggggggggggggggogggggggggggggggggggggggg",
"gggggggggggggggggggggggggggggggggggggggggggggggggggggggggggggggg",
"gggggggggggggggggggggggggggggogggggggggggggggggggggggggggggggggg",
"ggggggggggggggggggggggggggggogoggggggggggggggggggggggggggggggggg",
"oggggggggggggggggggggggggggggogggggggggggggggggggggggggggggggggg",
"ggggggggggggggggggggggggggggggggggggggggggggggggggggggggggggggg3",
"gggggggggggggggggggggggg8Ogggggggggggggggggggggggggggggggggggggg",
"ggggggggggggggggggggggggOg ggggggggggggggggggggggggggggggggggggg",
"gggggggggggggggggggggggg8 gggggggggggggggggggggggggggggggggggggg",
"gggggggggggggggggggggggggggggggggggggggggggggggggggggggggggggggg",
"gggggggggggggggggggggggggggggggggggggggggggggggggggggggggggggggg",
"gggggggggggggggggggggggggggggg<gggggggggggggggggggggggggoooogggg",
"ggggggggggggggggggggggggggggg$gggggggggggggggggggggggggggggggggg",
"gggggggggogggggggggggggggggggf0ggggggggggoggggggggggggggggoooggg",
"gggggggggogggggggggggggggggegfgggggggggggogggggggggggggggggggggg",
"ggggg gogoggggggggggggggggdfgggggggggggogogggggggggggggggg ggggg",
"gggg ggogogggggggggggggggggggggggggggggogoggggggggggggggggg gggg",
"gggggggogggggggggggggggggggggggggggggggogggggggggggggggggggggggg",
"gggggggggggggggggggggggggggggggggggggggggggggggggggggggggggggggg",
"gggggggggggggggggggggggggggggggggggggggggggggggggggggggggggggggg",
"ggg9gggggggggggpggggggfggggggggggggggggggggggggsgggggggggggggggg"
};
