/* XPM */
static char *result[] = {
/* columns rows colors chars-per-pixel */
"64 64 45 1 ",
"  c #9BADB7",
". c #9DAFB9",
"X c #C8D7E5",
"o c #CBDBFC",
"O c #D2E0EF",
"+ c #D2E1F0",
"@ c #DDEBFB",
"# c #EBEEF0",
"$ c #E3EBFD",
"% c #E7EEFE",
"& c #EFF2F3",
"* c #ECF1FE",
"= c #F0F2F3",
"- c #F3F4F5",
"; c #F5F6F7",
": c #F5F7F7",
"> c #F5F7F8",
", c #F0F4FE",
"< c #F3F7FE",
"1 c #F7F9F9",
"2 c #F5F9FD",
"3 c #F6F8FE",
"4 c #F6F9FE",
"5 c #F6F8FF",
"6 c #F7FAFF",
"7 c #F9FAFA",
"8 c #FAFBFB",
"9 c #F9FBFE",
"0 c #F8FAFF",
"q c #F9FBFF",
"w c #FBFCFC",
"e c #FAFCFE",
"r c #FBFCFF",
"t c #FCFCFD",
"y c #FDFDFD",
"u c #FCFDFE",
"i c #FDFDFE",
"p c #FCFDFF",
"a c #FDFDFF",
"s c #FDFEFE",
"d c #FDFEFF",
"f c #FEFEFE",
"g c #FEFEFF",
"h c #FEFFFF",
"j c white",
/* pixels */
"jjjjjjjjjdjjjjjjpjjjjjjjjjjjjjjjjjjjjjjjjgjjj*jjjjjjjjjjjjjjdjjj",
"jjjjjjjjjjjjjjjjjjjjjjjjjjjjjjjjjjjjjjjjjjjjjjjjjjjjjjjjjjjjjjjj",
"jjjjjjjjjjjjjjjjjjjjjjjjjjjjjjjjjjjjjjjjjjjjjjjjjjjjjjjjjjjjjjjj",
"qjjjjjjjjjjjjjjjjjjjjjjj6jjjjjjjjjjjjjjjjjjjjjjjjjjjjjjjojjjjjjj",
"jjjjjjOjjjjjjjjjjjjjjjajjjjjjjjjjjj-tjjjjjjjjjjjjjjjjjojojjjjjjj",
"jjjjjOj*jjjjjjjjjjjjjjajjjjjjjjjjj-r*:jjjjjjjjjjjjjjjjojojjjjjjj",
"jjjjjjOjjjjjjjjjjjjjjjjjjjjjjjjjjjjijjjjjjjjjjjjjjjjjjojjjjjjjjj",
"jjjagjjjjjjjjjjjjjjjjjhjjjjjjjjjjpjjjrjjjjjjjjjjjjjjjjojjjjjjjjj",
"jjjjjjjjjjjjjjjjjjjjjjjjjjjjjjjjjd<jjjjjjjjjjjjjjjjjjjjjjjjjjjjj",
"jjjjjjjjjjjjjjjjjjjjjjjjjjjjjjjjj3jjjjjjjjjjjjjjjjjjjjjjjjjjjjjg",
"jjjjjjjjjjjjjjjjjjjjjjjjjjjjjjjjjjjjjjjjjjjjjjjjjjjjjjjjjjjjjjjj",
"jjjjjjjjjjjjjjjjjjjjjjjjjjjjjjjjjjjjjjjjjjjjjjjjjjjjjjjjjjjjjjjj",
"jjjjjjjjjjjjjjjjjjjjjjjjjjjjjjjjjjjjjjjjjjjjjjjjjjjjjjjjjjjjjjjj",
"jjjjjjjjjjjjjjjjjjjjjjjjjjjjjjjjjjjjjfjfjjjjjjjjjjjjjjjjjjjjjjjj",
"jjjjjjjjjjjjjjjjjjjjjjjjjjjjjjjjjjjjjjsjjjjjjjjjjjjjjjjjjjjjjjjj",
"0jjjjjjjjjjjjjjjjjjjjjjjjjjjjjjjjjjjjjjjjjjjjjjjjjjjjjjjjjjjjjjj",
"jjjjjjjjjjjjjjjjjjjjjjjjjjjjjjjjjjjjjjjjjjjjjjjjjjjjjjjjjjjjjjjg",
"jjjjjjjjjjjjjjjjjjjjjjjjjjjjjjjjjjjjj9Ojjjjjjjjjjjjjjjjjjjjjjjjj",
"jjjjjjjjjjjjjjjjjjjjjjjjjjjjjjjjjjjjjO9Ojjjjjjjjjjjjjjjjjjjjjjjj",
"jjjjjjjjjjjjjjjjjjjjjjjjjjjjjjjjjjjjjj 9jjjjjjjjjjjjjjjjjjjjjjjj",
"jjjjjjjjjjjjjjjjjjjjjjjjjjjjjjjjjjjjjjjjjjjjjjjjjjjjjjjjjjjjjjjj",
"jjjjjjjjjjjjjjjjjjjjjjjjjjjjjjjjjjjjjjjjjjjjjjjjjjjjjjjjjjjjjjjj",
"4jjjjjjjjjjjjjjjjjjjjjjjjjjjjjjjjajjjjjjjjjjjjjjjjjjjjjjoooojjjj",
"jjjjjjjjjjjjjjjjjjjjjjjjjjjjjjjjjjajjjjjjjjjjjjjjjjjjjjjjjjjjjjj",
"jjjjjjjjjjjjeXjjjjjjjjojjjjjjjjjj5jjjjjjjjjjjjjjjjjjjjjjjjooojjj",
"jjjjjjjjjjjj+e jjjjjjjojjjjjjjjjjjp>jjjjjjjjjjjjjjjjjjjjjjjjjjjj",
"jjjjjwj*jjjj9 jjjjjjjjojojjjjjjjjj8jgwjjjjjjjjjjjjjjjjjjjjjjjjjj",
"jjjjjjjjjjjjjjjjjjjjjjojojjjjjjjjjj&wjjjjjjjjjjjjjjjjjjjjjjjjjjj",
"jjjjjg;jjjjjjjjjjjjjjjjjojjjjjjjjjjjjjjjjjjjjjjjjjjjjjjjjjjjjjjg",
"jjjjj#<3qjjjjjjjjjjjjjjjjjjjjjjjjjjjjjjjjjjjjjjjjjjjjjjjjjjjjjjj",
"jjjjjjj%rjjjjjjjjjjjjjjjjjjjjjjjjjjjjjjjjjjjjjjjjjjjjjjjjjjjjjjj",
"jjjjjjjjjjjjjjjjojjjjjjjjjjjjjjjjjjjjjjjjjjjjjjjjjjjjjjjjjjjjjjj",
"jjjjjjjjjjjjjjjjjojjjjjjjjjjjjjjjjjjjjjjjjjjjjjojjjjjjjjjjjjjjjj",
"jjjjjjjjjjjjjjjjojjjjjjjjjjjjjjjjjjjjjjjjjjjjjjjjjjjjj3*rjjjjjjj",
"jjjjjjjjjjjjjjjjjjjjjjjjjjjjjjjjjjjjjjjjjjjjjjjjjjjjjjjr,r1jjjjj",
"3jjjjjjjjjjjjjjjjjjjjjjjjjjjjjjjjjjjjjjjjjjjjjjjjjjjjjjjj=j7jjjj",
"jjjjjjjjjjjjjjjjjjjjjjjjjjjjjjjjjjjjjjjjjjjjjjjjjjjjjjjjjjgjjjjj",
"jjjjjjjjjjjjjjjjjjjjjjjjjjjjjjjjjjjjjjjjjjjjjjjjjj@jjjjj3gyjjjjj",
"jjjjjjjjjjjjjjjjjjjjjjjjjjjujjjjjjjjjjjjjjjjjjjjj.2Ojjjjjjjjjjjj",
"jjjdjjjjjjjjjjjjjjjjjjjjjj7jjjjjjjjjjjjjjjjjjjjjjeXjjjjjjjjjjjjj",
"jjjjjjjjjjjjjjjjjjjjjjjjjjjjjjjjjjjjjjjjjgjjjjjjjjjjjjjjjjjjjjjj",
"jjjjajjajjjjjjjjjjjjjjjjjjjjjjjjjjjjjjjdjjjjjjjjjjjjjjjjjjjjjjjj",
"jjjjjjjjjjjjjjjjjjjjjjjjjjjjjjjjjjjjjjjjjjjjjjjjjjjjjjjjjjjjjjjj",
"jjjjjjjjjjjjjjjjjjjjjjjjjjjjjjjjjjjjjjj3jjjjjjjjjjjjjjjjjjjjjjjj",
"jjjjjjjjjjjjjjjjjjjjjjjjjjjjjjjjjjjjjjjjjjjjjjjjjjjjjjjjjjjjjjjj",
"jjjjjjjjjjjjjjjjjjjjjjjjjjjjjojjjjjjjjjjjjjjjjjjjjjjjjjjjjjjjjjj",
"jjjjjjjjjjjjjjjjjjjjjjjjjjjjojojjjjjjjjjjjjjjjjjjjjjjjjjjjjjjjjj",
"ojjjjjjjjjjjjjjjjjjjjjjjjjjjjojjjjjjjjjjjjjjjjjjjjjjjjjjjjjjjjjj",
"jjjjjjjjjjjjjjjjjjjjjjjjjjjjjjjjjjjjjjjjjjjjjjjjjjjjjjjjjjjjjjj3",
"jjjjjjjjjjjjjjjjjjjjjjjj9Ojjjjjjjjjjjjjjjjjjjjjjjjjjjjjjjjjjjjjj",
"jjjjjjjjjjjjjjjjjjjjjjjjOj jjjjjjjjjjjjjjjjjjjjjjjjjjjjjjjjjjjjj",
"jjjjjjjjjjjjjjjjjjjjjjjj9 jjjjjjjjjjjjjjjjjjjjjjjjjjjjjjjjjjjjjj",
"jjjjjjjjjjjjjjjjjjjjjjjjjjjjjjjjjjjjjjjjjjjjjjjjjjjjjjjjjjjjjjjj",
"jjjjjjjjjjjjjjjjjjjjjjjjjjjjjjjjjjjjjjjjjjjjjjjjjjjjjjjjjjjjjjjj",
"jjjjjjjjjjjjjjjjjjjjjjjjjjjjjj<jjjjjjjjjjjjjjjjjjjjjjjjjjjjjjjjj",
"jjjjjjjjjjjjjjjjjjjjjjjjjjjjj$jjjjjjjjjjjjjjjjjjjjjjjjjjjjjjjjjj",
"jjjjjjjjjojjjjjjjjjjjjjjjjjjjgqjjjjjjjjjjjjjjjjjjjjjjjjjjjrgdjjj",
"jjjjjjjjjojjjjjjjjjjjjjjjjjrjgjjjjjjjjjjjjjjjjjjjjjjjjjjjjjjjjjj",
"jjjjj jojojjjjjjjjjjjjjjjjfgjjjjjjjjjjjjjjjjjjjjjjjjjjjjjj jjjjj",
"jjjj jjojojjjjjjjjjjjjjjjjjjjjjjjjjjjjjgjjjjjjjjjjjjjjjjjjj jjjj",
"jjjjjjjojjjjjjjjjjjjjjjjjjjjjjjjjjjjjjjgjjjjjjjjjjjjjjjjjjjjjjjj",
"jjjjjjjjjjjjjjjjjjjjjjjjjjjjjjjjjjjjjjjjjjjjjjjjjjjjjjjjjjjjjjjj",
"jjjjjjjjjjjjjjjjjjjjjjjjjjjjjjjjjjjjjjjjjjjjj*jjjjjjjjjjjjjjjjjj",
"jjj0jjjjjjjjjjjajjjjjjgjjjjjjjjjjjjjjjjjjjjj*j*djjjjjjjjjjjjjjjj"
};
