/* XPM */
static char *result[] = {
/* columns rows colors chars-per-pixel */
"64 128 6 1 ",
"  c black",
". c #7C4236",
"X c #6EC5ED",
"o c #AB92E0",
"O c white",
"+ c None",
/* pixels */
"++++++++++++++++++++++++++++++++++++++++++++++++++++++++++++++++",
"++++++++++++++++++++++++++++++++++++++++++++++++++++++++++++++++",
"++++++++++++++++++++++++++++++++++++++++++++++++++++++++++++++++",
"++++++++++++++++++++++++++++++++++++++++++++++++++++++++++++++++",
"++++++++++++++++++++++++++++++++++++++++++++++++++++++++++++++++",
"++++++++++++++++++++++++++++++++++++++++++++++++++++++++++++++++",
"++++++++++++++++++++++++++++++++++++++++++++++++++++++++++++++++",
"++++++++++++++++++++++++++++++++++++++++++++++++++++++++++++++++",
"++++++++++++++++++++++++++++++++++++++++++++++++++++++++++++++++",
"++++++++++++++++++++++++++++++++++++++++++++++++++++++++++++++++",
"++++++++++++++++++++++++++++++++++++++++++++++++++++++++++++++++",
"++++++++++++++++++++++++++++++++++++++++++++++++++++++++++++++++",
"++++++++++++++++++++++++++++++++++++++++++++++++++++++++++++++++",
"++++++++++++++++++++++++++++++++++++++++++++++++++++++++++++++++",
"++++++++++++++++++++++++++++++++++++++++++++++++++++++++++++++++",
"++++++++++++++++++++++++++++++++++++++++++++++++++++++++++++++++",
"++++++++++++++++++++++++++++++++++++++++++++++++++++++++++++++++",
"++++++++++++++++++++++++++++++++++++++++++++++++++++++++++++++++",
"++++++++++++++++++++++++++++++++++++++++++++++++++++++++++++++++",
"++++++++++++++++++++++++++++++++++++++++++++++++++++++++++++++++",
"++++++++++++++++++++++++++++++++++++++++++++++++++++++++++++++++",
"++++++++++++++++++++++++++++++++++++++++++++++++++++++++++++++++",
"++++++++++++++++++++++++++++++++++++++++++++++++++++++++++++++++",
"++++++++++++++++++++++++++++++++++++++++++++++++++++++++++++++++",
"++++++++++++++++++++++++++++++++++++++++++++++++++++++++++++++++",
"++++++++++++++++++++++++++++++++++++++++++++++++++++++++++++++++",
"++++++++++++++++++++++++++++++++++++++++++++++++++++++++++++++++",
"++++++++++++++++++++++++++++++++++++++++++++++++++++++++++++++++",
"++++++++++++++++++++++++++++++++++++++++++++++++++++++++++++++++",
"++++++++++++++++++++++++++++++++++++++++++++++++++++++++++++++++",
"++++++++++++++++++++++++++++++++++++++++++++++++++++++++++++++++",
"++++++++++++++++++++++++++++++++++++++++++++++++++++++++++++++++",
"++++++++++++++++++++++++++++++++++++++++++++++++++++++++++++++++",
"++++++++++++++++++++++++++++++++++++++++++++++++++++++++++++++++",
"++++++++++++++++++++++++++++++++++++++++++++++++++++++++++++++++",
"++++++++++++++++++++++++++++++++++++++++++++++++++++++++++++++++",
"++++++++++++++++++++++++++++++++++++++++++++++++++++++++++++++++",
"++++++++++++++++++++++++++++++++++++++++++++++++++++++++++++++++",
"++++++++++++++++++++++++++++++++++++++++++++++++++++++++++++++++",
"++++++++++++++++++++++++++++++++++++++++++++++++++++++++++++++++",
"++++++++++++++++++++++++++++++++++++++++++++++++++++++++++++++++",
"++++++++++++++++++++++++++++++++++++++++++++++++++++++++++++++++",
"++++++++++++++++++++++++++++++++++++++++++++++++++++++++++++++++",
"++++++++++++++++++++++++++++++++++++++++++++++++++++++++++++++++",
"++++++++++++++++++++++++++++++++++++++++++++++++++++++++++++++++",
"++++++++++++++++++++++++++++++++++++++++++++++++++++++++++++++++",
"++++++++++++++++++++++++++++++++++++++++++++++++++++++++++++++++",
"++++++++++++++++++++++++++++++++++++++++++++++++++++++++++++++++",
"++++++++++++++++++++++++++++++++++++++++++++++++++++++++++++++++",
"++++++++++++++++++++++++++++++++++++++++++++++++++++++++++++++++",
"++++++++++++++++++++++++++++++++++++++++++++++++++++++++++++++++",
"++++++++++++++++++++++++++++++++++++++++++++++++++++++++++++++++",
"++++++++++++++++++++++++++++++++++++++++++++++++++++++++++++++++",
"++++++++++++++++++++++++++++++++++++++++++++++++++++++++++++++++",
"++++++++++++++++++++++++++++++++++++++++++++++++++++++++++++++++",
"++++++++++++++++++++++++++++++++++++++++++++++++++++++++++++++++",
"++++++++++++++++++++++++++++++++++++++++++++++++++++++++++++++++",
"++++++++++++++++++++++++++++       +++++++++++++++++++++++++++++",
"+++++++++++++++++++++++++   .......   ++++++++++++++++++++++++++",
"+++++++++++++++++++++++  .............  ++++++++++++++++++++++++",
"++++++++++++++++++++++ ................. +++++++++++++++++++++++",
"+++++++++++++++++++++ ......... ......... ++++++++++++++++++++++",
"+++++++++++++++++++++ .......  O   ....... +++++++++++++++++++++",
"+++++++++++++++++++++ ....   OOOOOO    ... +++++++++++++++++++++",
"+++++++++++++++++++++ .   OOOOOOOOOOOO   . +++++++++++++++++++++",
"+++++++++++++++++++++ . OOOOOOOOOOOOOOO .. +++++++++++++++++++++",
"+++++++++++++++++++++ . OOO   OOO   OOO . ++++++++++++++++++++++",
"++++++++++++++++++++++  OO OOO O OOO OO  +++++++++++++++++++++++",
"+++++++++++++++++++++++    O O   O O    ++++++++++++++++++++++++",
"+++++++++++++++++++++++ OO OOO O OOO OO ++++++++++++++++++++++++",
"+++++++++++++++++++++++ OOO   O O   OOO ++++++++++++++++++++++++",
"+++++++++++++++++++++++ OOOOOOO OOOOOOO ++++++++++++++++++++++++",
"+++++++++++++++++++++++ OOOOOOOO OOOOOO ++++++++++++++++++++++++",
"++++++++++++++++++++++++ OOOOO  OOOOOO +++++++++++++++++++++++++",
"++++++++++++++++++++++++ OOOOOOOOOOOOO +++++++++++++++++++++++++",
"+++++++++++++++++++++++++ OOOOOOOOOOO ++++++++++++++++++++++++++",
"+++++++++++++++++++++++++  OOO   OOOO ++++++++++++++++++++++++++",
"++++++++++++++++++++++++++  OOOOOOOO +++++++++++++++++++++++++++",
"++++++++++++++++++++++++++++  OOOO  ++++++++++++++++++++++++++++",
"++++++++++++++++++++++++++++       +++++++++++++++++++++++++++++",
"+++++++++++++++++++++++++++++ OOO ++++++++++++++++++++++++++++++",
"+++++++++++++++++++++++++++++ ooo ++++++++++++++++++++++++++++++",
"++++++++++++++++++++++++++    ooo    +++++++++++++++++++++++++++",
"++++++++++++++++++++++++  oooooooooo    ++++++++++++++++++++++++",
"+++++++++++++++++++++++ ooooooooooooooo  +++++++++++++++++++++++",
"++++++++++++++++++++++ ooooooooooooooooo  ++++++++++++++++++++++",
"+++++++++++++++++++++ ooooooooooooooooooo ++++++++++++++++++++++",
"+++++++++++++++++++++ oooooooooooooooooooo +++++++++++++++++++++",
"+++++++++++++++++++++ oooooooooooooooooooo +++++++++++++++++++++",
"+++++++++++++++++++++ ooo oooooooooooo ooo +++++++++++++++++++++",
"+++++++++++++++++++++ ooo oooooooooooo ooo +++++++++++++++++++++",
"+++++++++++++++++++++ ooo oooooooooooo ooo +++++++++++++++++++++",
"+++++++++++++++++++++ ooo oooooooooooo ooo +++++++++++++++++++++",
"+++++++++++++++++++++ ooo oooooooooooo ooo +++++++++++++++++++++",
"+++++++++++++++++++++ ooo oooooooooooo ooo +++++++++++++++++++++",
"+++++++++++++++++++++ ooo oooooooooooo ooo +++++++++++++++++++++",
"+++++++++++++++++++++ ooo oooooooooooo ooo +++++++++++++++++++++",
"+++++++++++++++++++++ ooo oooooooooooo ooo +++++++++++++++++++++",
"+++++++++++++++++++++ ooo oooooooooooo ooo +++++++++++++++++++++",
"+++++++++++++++++++++ ooo oooooooooooo ooo +++++++++++++++++++++",
"+++++++++++++++++++++ ooo XXXXXXXXXXXX ooo +++++++++++++++++++++",
"+++++++++++++++++++++ ooo XXXXXXXXXXXX ooo +++++++++++++++++++++",
"+++++++++++++++++++++ ooo XXXXXXXXXXXX ooo +++++++++++++++++++++",
"+++++++++++++++++++++     XXXX    XXXX     +++++++++++++++++++++",
"++++++++++++++++++++++ OO XXXX ++ XXXX OO ++++++++++++++++++++++",
"+++++++++++++++++++++  OO XXXX ++ XXXX OO  +++++++++++++++++++++",
"+++++++++++++++++++++ OOO XXXX ++ XXXX OOO +++++++++++++++++++++",
"+++++++++++++++++++++     XXXX ++ XXXX     +++++++++++++++++++++",
"+++++++++++++++++++++++++ XXXX ++ XXXX +++++++++++++++++++++++++",
"+++++++++++++++++++++++++ XXXX ++ XXXX +++++++++++++++++++++++++",
"+++++++++++++++++++++++++ XXXX ++ XXXX +++++++++++++++++++++++++",
"+++++++++++++++++++++++++ XXXX ++ XXXX +++++++++++++++++++++++++",
"+++++++++++++++++++++++++ XXXX ++ XXXX +++++++++++++++++++++++++",
"+++++++++++++++++++++++++ XXXX ++ XXXX +++++++++++++++++++++++++",
"+++++++++++++++++++++++++ XXXX ++ XXXX +++++++++++++++++++++++++",
"+++++++++++++++++++++++++ XXXX ++  XXX +++++++++++++++++++++++++",
"+++++++++++++++++++++++++ XXX +++  XXX +++++++++++++++++++++++++",
"+++++++++++++++++++++++++ XXX ++++ XXX +++++++++++++++++++++++++",
"+++++++++++++++++++++++++ XXX ++++ XXX +++++++++++++++++++++++++",
"+++++++++++++++++++++++++ XXX ++++ XXX +++++++++++++++++++++++++",
"+++++++++++++++++++++++++ XXX ++++ XXX +++++++++++++++++++++++++",
"+++++++++++++++++++++++++ XXX ++++ XX ++++++++++++++++++++++++++",
"+++++++++++++++++++++++++ XXX  +++ XXX  ++++++++++++++++++++++++",
"++++++++++++++++++++++++ XXXXXX + XXXXXX +++++++++++++++++++++++",
"++++++++++++++++++++++++ XXXXXX + XXXXXXX ++++++++++++++++++++++",
"++++++++++++++++++++++++  XXXX +++ XXXXXX ++++++++++++++++++++++",
"+++++++++++++++++++++++++     +++++      +++++++++++++++++++++++",
"++++++++++++++++++++++++++++++++++++++++++++++++++++++++++++++++"
};
