/* XPM */
static char *result[] = {
/* columns rows colors chars-per-pixel */
"64 128 8 1 ",
"  c black",
". c #7C4236",
"X c #C52A2A",
"o c #F3D555",
"O c #FBBB8E",
"+ c #F2B9E9",
"@ c white",
"# c None",
/* pixels */
"################################################################",
"################################################################",
"################################################################",
"################################################################",
"################################################################",
"################################################################",
"################################################################",
"################################################################",
"################################################################",
"################################################################",
"################################################################",
"################################################################",
"################################################################",
"################################################################",
"################################################################",
"################################################################",
"################################################################",
"################################################################",
"################################################################",
"################################################################",
"################################################################",
"################################################################",
"################################################################",
"################################################################",
"################################################################",
"################################################################",
"################################################################",
"################################################################",
"################################################################",
"################################################################",
"################################################################",
"################################################################",
"################################################################",
"################################################################",
"################################################################",
"################################################################",
"################################################################",
"################################################################",
"################################################################",
"################################################################",
"################################################################",
"################################################################",
"################################################################",
"################################################################",
"################################################################",
"################################################################",
"################################################################",
"################################################################",
"################################################################",
"################################################################",
"################################################################",
"################################################################",
"################################################################",
"################################################################",
"################################################################",
"################################################################",
"################################################################",
"################################################################",
"################################################################",
"################################################################",
"################################################################",
"################################################################",
"################################################################",
"################################################################",
"################################################################",
"################################################################",
"################################################################",
"################################################################",
"################################################################",
"################################################################",
"################################################################",
"################################################################",
"################################################################",
"################################################################",
"################################################################",
"################################################################",
"################################################################",
"################################################################",
"################################################################",
"##########################################################    ##",
"######################################################### OOOO #",
"######################################################## OOOOO #",
"######################################################## OOOOOO ",
"##     ################################################# OOOOOO ",
"# ++++  #######     ################################### OOOOOOO ",
"# +   + ####### OOOO ################################## OOOOOOO ",
"# + +++ ###### O   O ################################# OOOOO OO ",
"# +++++      # OOO O ################################# OOOO OO #",
"#  +++++++++  +++OOO ################################# OOO OOO #",
"## ++++++++++++++++  ################################ OOO OOO  #",
"## ++++++++++++++++ ################################# OO OOOO ##",
"## ++   ++++   ++++ ################################# O OOOOO ##",
"## ++ @@ ++  @  ++++ ############################### O OOOOOO ##",
"## + @ @ ++ @@@ ++++ ############################### OOOOOOO ###",
"## + @@@ ++ @ @@ +++ ############################### OOOOOOO ###",
"## +    +++ @@@ ++++ ############################## OOOOOOOO ###",
"## +++++++++   +++++ ############################## OOOOOOO ####",
"#   ++++++++++++++++ ############################## OOOOOOO ####",
" @@@   +++++++++++++ ############################## OOOOOO #####",
" @@@@@  ++++++++++++ ############################# OOOOOOO #####",
" @@@@@@@ ++++++++++++      ####################### OOOOOO  #####",
" @   @@@@ ++++++++++ooooooo                       OOOOOOO ######",
"  @@@@@@@ +++++++oooooooooooooooooooooooooooooooooOOOOOOO ######",
"##  @@@       +ooooooooooooooooooooooooooooooooooOOOOOOO  ######",
"####   ###### ooooooo ooooooooooooooooo ooooooooOO OOOOO #######",
"############## ooooo ooooooooo ooooooo oooooooooO OOOOO ########",
"############## oooo ooooooooo ooooooo oooooooooO OOOOOO ########",
"############## ooo ooooooooo ooooooo oooooooooO OOOOOO #########",
"############## oooooooooooo ooooooo oooooooooo OOOOOOO #########",
"############## +++oooooooo ooooooooooooooooooOOOOOOOOO #########",
"############## ++++ooooooooooooooooooooooooooOOOOOOOOO #########",
"############## +++++oooooooooooooooooooooooo      OOOO #########",
"########  ##### +++++ooooooooooooo     ooooo #### OOOO #########",
"#####     ##### ++++++       ooooo ###  oooo #### OOOO #########",
"##    @@@        ++++  ##### ooooo #### oooo #### OOOO #########",
" XX@@@@@@ .. ++  ++++ ###### ooooo #### oooo #### OOOO #########",
"   X   @@   +++++ +++ ###### ooooo #### oooo #### OOOO #########",
"######    # +++++++++ ###### ooooo #### oooo #### OOOO #########",
"###########    ++++++ ###### ooooo #### oooo #### OOOO #########",
"############### +++++ ###### ooooo #### oooo #### OOOO #########",
"################ ++++ ###### ooooo #### oooo #### OOOO #########",
"#################  +  ###### oooo ##### oooo #### OOOO #########",
"##################   ####### oooo ##### oooo #### OOOO #########",
"############################ oooo ##### ooo ##### OOO ##########",
"#########################    oooo ####  ooo ###   OOO ##########",
"######################## ooooooo ###  ooooo ## OOOOOO ##########",
"######################## ooooooo ## ooooooo ###   O  ###########",
"#########################       ####       ######   ############"
};
