/* XPM */
static char *_6d76ce627de4b5b9bd74aa5d69ceef8pbsXwIP5d9Pn6d0T[] = {
/* columns rows colors chars-per-pixel */
"64 128 8 1 ",
"  c None",
". c black",
"X c #7C4236",
"o c #C52A2A",
"O c #F3D555",
"+ c #FBBB8E",
"@ c #F2B9E9",
"# c white",
/* pixels */
"                                                                ",
"                                                                ",
"                                                                ",
"                                                                ",
"                                                                ",
"                                                                ",
"                                                                ",
"                                                                ",
"                                                                ",
"                                                                ",
"                                                                ",
"                                                                ",
"                                                                ",
"                                                                ",
"                                                                ",
"                                                                ",
"                                                                ",
"                                                                ",
"                                                                ",
"                                                                ",
"                                                                ",
"                                                                ",
"                                                                ",
"                                                                ",
"                                                                ",
"                                                                ",
"                                                                ",
"                                                                ",
"                                                                ",
"                                                                ",
"                                                                ",
"                                                                ",
"                                                                ",
"                                                                ",
"                                                                ",
"                                                                ",
"                                                                ",
"                                                                ",
"                                                                ",
"                                                                ",
"                                                                ",
"                                                                ",
"                                                                ",
"                                                                ",
"                                                                ",
"                                                                ",
"                                                                ",
"                                                                ",
"                                                                ",
"                                                                ",
"                                                                ",
"                                                                ",
"                                                                ",
"                                                                ",
"                                                                ",
"                                                                ",
"                                                                ",
"                                                                ",
"                                                                ",
"                                                                ",
"                                                                ",
"                                                                ",
"                                                                ",
"                                                                ",
"                                                                ",
"                                                                ",
"                                                                ",
"                                                                ",
"                                                                ",
"                                                                ",
"                                                                ",
"                                                                ",
"                                                                ",
"                                                                ",
"                                                                ",
"                                                                ",
"                                                                ",
"                                                                ",
"                                                                ",
"  ....                                                          ",
" .++++.                                                         ",
" .+++++.                                                        ",
".++++++.                                                        ",
".++++++.                                              .....     ",
".+++++++.                                .....       ..@@@@.    ",
".+++++++.                               .++++.       .@...@.    ",
".++.+++++.                              .+...+.      .@@@.@.    ",
" .++.++++.                              .+.+++. ......@@@@@.    ",
" .+++.+++.                              .+++@@@..@@@@@@@@@..    ",
" ..+++.+++.                             ..@@@@@@@@@@@@@@@@.     ",
"  .++++.++.                              .@@@@@@@@@@@@@@@@.     ",
"  .+++++.+.                              .@@@@@@@@@@@...@@.     ",
"  .++++++.+.                            .@@@@@...@@@.##.@@.     ",
"   .+++++++.                            .@@@@.###.@@.#.#.@.     ",
"   .+++++++.                            .@@@@.#.#.@@.###.@.     ",
"   .++++++++.                           .@@@@.###.@@@....@.     ",
"    .+++++++.                           .@@@@@...@@@@@@@@@.     ",
"    .+++++++.                           .@@@@@@@@@@@@@@@@...    ",
"     .++++++.                           .@@@@@@@@@@@@@...###.   ",
"     .+++++++.                          .@@@@@@@@@@@@..#####.   ",
"     ..++++++.                       ...@@@@@@@@@@@@.#######.   ",
"      .+++++++.......................OOOO@@@@@@@@@@.####...#.   ",
"      .+++++++OOOOOOOOOOOOOOOOOOOOOOOOOOOOOO@@@@@@@.#######..   ",
"      ..+++++++OOOOOOOOOOOOOOOOOOOOOOOOOOOOOOO@.......###..     ",
"       .+++++.++OOOOOOOO.OOOOOOOOOOOOOO.OOOOOOO.      ...       ",
"        .+++++.+OOOOOOOOO.OOOOOOO.OOOOOO.OOOOO.                 ",
"        .++++++.+OOOOOOOOO.OOOOOOO.OOOOOO.OOOO.                 ",
"         .++++++.+OOOOOOOOO.OOOOOOO.OOOOOO.OOO.                 ",
"         .+++++++.OOOOOOOOOO.OOOOOOO.OOOOOOOOO.                 ",
"         .+++++++++OOOOOOOOOOOOOOOOOO.OOOOO@@@.                 ",
"         .+++++++++OOOOOOOOOOOOOOOOOOOOOOO@@@@.     .           ",
"         .++++......OOOOOOOOOOOOOOOOOOOOO@@@@@.    .#.....      ",
"         .++++.    .OOOOO.....OOOOOOOOOO@@@@@.  .. .######....  ",
"         .++++.    .OOOO..   .OOOOO....@@@@@@. .@@.X#######oooo.",
"         .++++.    .OOOO.    .OOOOO.  ..@@@@...@@@@.####...oo.. ",
"         .++++.    .OOOO.    .OOOOO.   .@@@@..@@@@..#...   o    ",
"         .++++.    .OOOO.    .OOOOO.   .@@@.@@@@..  .           ",
"         .++++.    .OOOO.    .OOOOO.   .@@@@@@@.                ",
"         .++++.    .OOOO.    .OOOOO.   .@@@@@@.                 ",
"         .++++.    .OOOO.    .OOOOO.   .@@@@@.                  ",
"         .++++.    .OOOO.    .OOOOO.   .@@@@.                   ",
"         .++++.    .OOOO.     .OOOO.   ..@..                    ",
"         .++++.    .OOOO.     .OOOO.    ...                     ",
"          .+++.     .OOO.     .OOOO.                            ",
"          .+++...   .OOO..    .OOOO....                         ",
"          .++++++.  .OOOOO..   .OOOOOOO.                        ",
"           ..+...   .OOOOOOO.  .OOOOOOO.                        ",
"            ...      .......    .......                         "
};
