/* XPM */
static char *result[] = {
/* columns rows colors chars-per-pixel */
"64 128 9 1 ",
"  c black",
". c #7C4236",
"X c #FFAD4E",
"o c #D8A46E",
"O c #8C64DF",
"+ c #79B081",
"@ c #6EC5ED",
"# c white",
"$ c None",
/* pixels */
"$$$$$$$$$$$$$$$$$$$$$$$$$$$$$$$$$$$$$$$$$$$$$$$$$$$$$$$$$$$$$$$$",
"$$$$$$$$$$$$$$$$$$$$$$$$$$$$$$$$$$$$$$$$$$$$$$$$$$$$$$$$$$$$$$$$",
"$$$$$$$$$$$$$$$$$$$$$$$$$$$$$$$$$$$$$$$$$$$$$$$$$$$$$$$$$$$$$$$$",
"$$$$$$$$$$$$$$$$$$$$$$$$$$$$$$$$$$$$$$$$$$$$$$$$$$$$$$$$$$$$$$$$",
"$$$$$$$$$$$$$$$$$$$$$$$$$$$$$$$$$$$$$$$$$$$$$$$$$$$$$$$$$$$$$$$$",
"$$$$$$$$$$$$$$$$$$$$$$$$$$$$$$$$$$$$$$$$$$$$$$$$$$$$$$$$$$$$$$$$",
"$$$$$$$$$$$$$$$$$$$$$$$$$$$$$$$$$$$$$$$$$$$$$$$$$$$$$$$$$$$$$$$$",
"$$$$$$$$$$$$$$$$$$$$$$$$$$$$$$$$$$$$$$$$$$$$$$$$$$$$$$$$$$$$$$$$",
"$$$$$$$$$$$$$$$$$$$$$$$$$$$$$$$$$$$$$$$$$$$$$$$$$$$$$$$$$$$$$$$$",
"$$$$$$$$$$$$$$$$$$$$$$$$$$$$$$$$$$$$$$$$$$$$$$$$$$$$$$$$$$$$$$$$",
"$$$$$$$$$$$$$$$$$$$$$$$$$$$$$$$$$$$$$$$$$$$$$$$$$$$$$$$$$$$$$$$$",
"$$$$$$$$$$$$$$$$$$$$$$$$$$$$$$$$$$$$$$$$$$$$$$$$$$$$$$$$$$$$$$$$",
"$$$$$$$$$$$$$$$$$$$$$$$$$$$$$$$$$$$$$$$$$$$$$$$$$$$$$$$$$$$$$$$$",
"$$$$$$$$$$$$$$$$$$$$$$$$$$$$$$$$$$$$$$$$$$$$$$$$$$$$$$$$$$$$$$$$",
"$$$$$$$$$$$$$$$$$$$$$$$$$$$$$$$$$$$$$$$$$$$$$$$$$$$$$$$$$$$$$$$$",
"$$$$$$$$$$$$$$$$$$$$$$$$$$$$$$$$$$$$$$$$$$$$$$$$$$$$$$$$$$$$$$$$",
"$$$$$$$$$$$$$$$$$$$$$$$$$$$$$$$$$$$$$$$$$$$$$$$$$$$$$$$$$$$$$$$$",
"$$$$$$$$$$$$$$$$$$$$$$$$$$$$$$$$$$$$$$$$$$$$$$$$$$$$$$$$$$$$$$$$",
"$$$$$$$$$$$$$$$$$$$$$$$$$$$$$$$$$$$$$$$$$$$$$$$$$$$$$$$$$$$$$$$$",
"$$$$$$$$$$$$$$$$$$$$$$$$$$$$$$$$$$$$$$$$$$$$$$$$$$$$$$$$$$$$$$$$",
"$$$$$$$$$$$$$$$$$$$$$$$$$$$$$$$$$$$$$$$$$$$$$$$$$$$$$$$$$$$$$$$$",
"$$$$$$$$$$$$$$$$$$$$$$$$$$$$$$$$$$$$$$$$$$$$$$$$$$$$$$$$$$$$$$$$",
"$$$$$$$$$$$$$$$$$$$$$$$$$$$$$$$$$$$$$$$$$$$$$$$$$$$$$$$$$$$$$$$$",
"$$$$$$$$$$$$$$$$$$$$$$$$$$$$$$$$$$$$$$$$$$$$$$$$$$$$$$$$$$$$$$$$",
"$$$$$$$$$$$$$$$$$$$$$$$$$$$$$$$$$$$$$$$$$$$$$$$$$$$$$$$$$$$$$$$$",
"$$$$$$$$$$$$$$$$$$$$$$$$$$$$$$$$$$$$$$$$$$$$$$$$$$$$$$$$$$$$$$$$",
"$$$$$$$$$$$$$$$$$$$$$$$$$$$$$$$$$$$$$$$$$$$$$$$$$$$$$$$$$$$$$$$$",
"$$$$$$$$$$$$$$$$$$$$$$$$$$$$$$$$$$$$$$$$$$$$$$$$$$$$$$$$$$$$$$$$",
"$$$$$$$$$$$$$$$$$$$$$$$$$$$$$$$$$$$$$$$$$$$$$$$$$$$$$$$$$$$$$$$$",
"$$$$$$$$$$$$$$$$$$$$$$$$$$$$$$$$$$$$$$$$$$$$$$$$$$$$$$$$$$$$$$$$",
"$$$$$$$$$$$$$$$$$$$$$$$$$$$$$$$$$$$$$$$$$$$$$$$$$$$$$$$$$$$$$$$$",
"$$$$$$$$$$$$$$$$$$$$$$$$$$$$$$$$$$$$$$$$$$$$$$$$$$$$$$$$$$$$$$$$",
"$$$$$$$$$$$$$$$$$$$$$$$$$$$$$$$$$$$$$$$$$$$$$$$$$$$$$$$$$$$$$$$$",
"$$$$$$$$$$$$$$$$$$$$$$$$$$$$$$$$$$$$$$$$$$$$$$$$$$$$$$$$$$$$$$$$",
"$$$$$$$$$$$$$$$$$$$$$$$$$$$$$$$$$$$$$$$$$$$$$$$$$$$$$$$$$$$$$$$$",
"$$$$$$$$$$$$$$$$$$$$$$$$$$$$$$$$$$$$$$$$$$$$$$$$$$$$$$$$$$$$$$$$",
"$$$$$$$$$$$$$$$$$$$$$$$$$$$$$$$$$$$$$$$$$$$$$$$$$$$$$$$$$$$$$$$$",
"$$$$$$$$$$$$$$$$$$$$$$$$$$$$$$$$$$$$$$$$$$$$$$$$$$$$$$$$$$$$$$$$",
"$$$$$$$$$$$$$$$$$$$$$$$$$$$$$$$$$$$$$$$$$$$$$$$$$$$$$$$$$$$$$$$$",
"$$$$$$$$$$$$$$$$$$$$$$$$$$$$$$$$$$$$$$$$$$$$$$$$$$$$$$$$$$$$$$$$",
"$$$$$$$$$$$$$$$$$$$$$$$$$$$$$$$$$$$$$$$$$$$$$$$$$$$$$$$$$$$$$$$$",
"$$$$$$$$$$$$$$$$$$$$$$$$$$$$$$$$$$$$$$$$$$$$$$$$$$$$$$$$$$$$$$$$",
"$$$$$$$$$$$$$$$$$$$$$$$$$$$$$$$$$$$$$$$$$$$$$$$$$$$$$$$$$$$$$$$$",
"$$$$$$$$$$$$$$$$$$$$$$$$$$$$$$$$$$$$$$$$$$$$$$$$$$$$$$$$$$$$$$$$",
"$$$$$$$$$$$$$$$$$$$$$$$$$$$$$$$$$$$$$$$$$$$$$$$$$$$$$$$$$$$$$$$$",
"$$$$$$$$$$$$$$$$$$$$$$$$$$$$$$$$$$$$$$$$$$$$$$$$$$$$$$$$$$$$$$$$",
"$$$$$$$$$$$$$$$$$$$$$$$$$$$$$$$$$$$$$$$$$$$$$$$$$$$$$$$$$$$$$$$$",
"$$$$$$$$$$$$$$$$$$$$$$$$$$$$$$$$$$$$$$$$$$$$$$$$$$$$$$$$$$$$$$$$",
"$$$$$$$$$$$$$$$$$$$$$$$$$$$$$$$$$$$$$$$$$$$$$$$$$$$$$$$$$$$$$$$$",
"$$$$$$$$$$$$$$$$$$$$$$$$$$$$$$$$$$$$$$$$$$$$$$$$$$$$$$$$$$$$$$$$",
"$$$$$$$$$$$$$$$$$$$$$$$$$$$$$$$$$$$$$$$$$$$$$$$$$$$$$$$$$$$$$$$$",
"$$$$$$$$$$$$$$$$$$$$$$$$$$$$$$$$$$$$$$$$$$$$$$$$$$$$$$$$$$$$$$$$",
"$$$$$$$$$$$$$$$$$$$$$$$$$$$$$$$$$$$$$$$$$$$$$$$$$$$$$$$$$$$$$$$$",
"$$$$$$$$$$$$$$$$$$$$$$$$$$$$$$$$$$$$$$$$$$$$$$$$$$$$$$$$$$$$$$$$",
"$$$$$$$$$$$$$$$$$$$$$$$$$$$$$$$$$$$$$$$$$$$$$$$$$$$$$$$$$$$$$$$$",
"$$$$$$$$$$$$$$$$$$$$$$$$$$$$$$$$$$$$$$$$$$$$$$$$$$$$$$$$$$$$$$$$",
"$$$$$$$$$$$$$$$$$$$$$$$$$  $$$$$$$$$$$$$$$$$$$$$$$$$$$$$$$$$$$$$",
"$$$$$$$$$$$$$$$$$$$$$$$  OO $      $$$$$$$$$$$$$$$$$$$$$$$$$$$$$",
"$$$$$$$$$$$$$$$$$$$$$$ OO O  ......   $$$$$$$$$$$$$$$$$$$$$$$$$$",
"$$$$$$$$$$$$$$$$$$$$$$ O o OO ........  $$$$$$$$$$$$$$$$$$$$$$$$",
"$$$$$$$$$$$$$$$$$$$$$$   oo O .......... $$$$$$$$$$$$$$$$$$$$$$$",
"$$$$$$$$$$$$$$$$$$$$$  OO  O .. ......... $$$$$$$$$$$$$$$$$$$$$$",
"$$$$$$$$$$$$$$$$$$$$$ . OO O   #   ....... $$$$$$$$$$$$$$$$$$$$$",
"$$$$$$$$$$$$$$$$$$$$$ ..    #######    ... $$$$$$$$$$$$$$$$$$$$$",
"$$$$$$$$$$$$$$$$$$$$$ .  #############   . $$$$$$$$$$$$$$$$$$$$$",
"$$$$$$$$$$$$$$$$$$$$$   ############### .. $$$$$$$$$$$$$$$$$$$$$",
"$$$$$$$$$$$$$$$$$$$$$ . ###   ###   ### .. $$$$$$$$$$$$$$$$$$$$$",
"$$$$$$$$$$$$$$$$$$$$$ . ## ### # ### ## .. $$$$$$$$$$$$$$$$$$$$$",
"$$$$$$$$$$$$$$$$$$$$$ .    # #   # #    .. $$$$$$$$$$$$$$$$$$$$$",
"$$$$$$$$$$$$$$$$$$$$$ . ## ### # ### ## .. $$$$$$$$$$$$$$$$$$$$$",
"$$$$$$$$$$$$$$$$$$$$$ . ###   # #   ### .. $$$$$$$$$$$$$$$$$$$$$",
"$$$$$$$$$$$$$$$$$$$$$ . ####### ####### .. $$$$$$$$$$$$$$$$$$$$$",
"$$$$$$$$$$$$$$$$$$$$$ . ######## ###### .. $$$$$$$$$$$$$$$$$$$$$",
"$$$$$$$$$$$$$$$$$$$$$ .. #####  ###### ... $$$$$$$$$$$$$$$$$$$$$",
"$$$$$$$$$$$$$$$$$$$$$ .. ############# ... $$$$$$$$$$$$$$$$$$$$$",
"$$$$$$$$$$$$$$$$$$$$$ ... ########### .... $$$$$$$$$$$$$$$$$$$$$",
"$$$$$$$$$$$$$$$$$$$$$ ...  ###   #### .... $$$$$$$$$$$$$$$$$$$$$",
"$$$$$$$$$$$$$$$$$$$$$  ...  ######## ..... $$$$$$$$$$$$$$$$$$$$$",
"$$$$$$$$$$$$$$$$$$$$$$ .....  ####  ...... $$$$$$$$$$$$$$$$$$$$$",
"$$$$$$$$$$$$$$$$$$$$$$ .....       ....... $$$$$$$$$$$$$$$$$$$$$",
"$$$$$$$$$$$$$$$$$$$$$$ ...... ### ........ $$$$$$$$$$$$$$$$$$$$$",
"$$$$$$$$$$$$$$$$$$$$$$ ...... XXX ........ $$$$$$$$$$$$$$$$$$$$$",
"$$$$$$$$$$$$$$$$$$$$$$   .    XXX          $$$$$$$$$$$$$$$$$$$$$",
"$$$$$$$$$$$$$$$$$$$$$$$$  XXXXXXXXXX    $$$$$$$$$$$$$$$$$$$$$$$$",
"$$$$$$$$$$$$$$$$$$$$$$$ XXXXXXXXXXXXXXX  $$$$$$$$$$$$$$$$$$$$$$$",
"$$$$$$$$$$$$$$$$$$$$$$ XXXXXXXXXXXXXXXXX  $$$$$$$$$$$$$$$$$$$$$$",
"$$$$$$$$$$$$$$$$$$$$$ XXXXXXXXXXXXXXXXXXX $$$$$$$$$$$$$$$$$$$$$$",
"$$$$$$$$$$$$$$$$$$$$$ XXXXXXXXXXXXXXXXXXXX $$$$$$$$$$$$$$$$$$$$$",
"$$$$$$$$$$$$$$$$$$$$$ XXXXXXXXXXXXXXXXXXXX $$$$$$$$$$$$$$$$$$$$$",
"$$$$$$$$$$$$$$$$$$$$$ XXX XXXXXXXXXXXX XXX $$$$$$$$$$$$$$$$$$$$$",
"$$$$$$$$$$$$$$$$$$$$$ XXX XXXXXXXXXXXX XXX $$$$$$$$$$$$$$$$$$$$$",
"$$$$$$$$$$$$$$$$$$$$$ XXX XXXXXXXXXXXX XXX $$$$$$$$$$$$$$$$$$$$$",
"$$$$$$$$$$$$$$$$$$$$$ XXX XXXXXXXXXXXX XXX $$$$$$$$$$$$$$$$$$$$$",
"$$$$$$$$$$$$$$$$$$$$$ XXX XXXXXXXXXXXX XXX $$$$$$$$$$$$$$$$$$$$$",
"$$$$$$$$$$$$$$$$$$$$$ XXX XXXXXXXXXXXX XXX $$$$$$$$$$$$$$$$$$$$$",
"$$$$$$$$$$$$$$$$$$$$$ XXX XXXXXXXXXXXX XXX $$$$$$$$$$$$$$$$$$$$$",
"$$$$$$$$$$$$$$$$$$$$$ XXX XXXXXXXXXXXX XXX $$$$$$$$$$$$$$$$$$$$$",
"$$$$$$$$$$$$$$$$$$$$$ XXX XXXXXXXXXXXX XXX $$$$$$$$$$$$$$$$$$$$$",
"$$$$$$$$$$$$$$$$$$$$$ XXX XXXXXXXXXXXX XXX $$$$$$$$$$$$$$$$$$$$$",
"$$$$$$$$$$$$$$$$$$$$$ XXX XXXXXXXXXXXX XXX $$$$$$$$$$$$$$$$$$$$$",
"$$$$$$$$$$$$$$$$$$$$$ XXX @@@@@@@@@@@@ XXX $$$$$ $$$$$$$$$$$$$$$",
"$$$$$$$$$$$$$$$$$$$$$ XXX @@@@@@@@@@@@ XXX $$$$ O O $$$$$$$$$$$$",
"$$$$$$$$$$$$$$$$$$$$$ XXX @@@@@@@@@@@@ XXX $$$$O   O $$$$$$$$$$$",
"$$$$$$$$$$$$$$$$$$$$$     @@@@    @@@@     $$+  oo   $$$$$$$$$$$",
"$$$$$$$$$$$$$$$$$$$$$$ ## @@@@ $$ @@@@ ## $$  $O  O $$$$$$$$$$$$",
"$$$$$$$$$$$$$$$$$$$$$  ## @@@@ $$ @@@@ ##   ++$ O O $$$$$$$$$$$$",
"$$$$$$$$$$$$$$$$$$$$$ ### @@@@ $$ @@@@ ###     O o O $$$$$$$$$$$",
"$$$$$$$$$$$$$$$$$$$$$     @@@@ $$ @@@@      ++ O o O $$$$$$$$$$$",
"$$$$$$$$$$$$$$$$$$$$$$$$$ @@@@ $$ @@@@ $$$$+  O O O $$$$$$$$$$$$",
"$$$$$$$$$$$$$$$$$$$$$$$$$ @@@@ $$ @@@@ $$$$+ O   O $$$$$$$$$$$$$",
"$$$$$$$$$$$$$$$$$$$$$$$$$ @@@@ $$ @@@@ $$$$ O oo  $$$$$$$$$$$$$$",
"$$$$$$$$$$$$$$$$$$$$$$$$$ @@@@ $$ @@@@ $$$$ OO  OO $$$$$$$$$$$$$",
"$$$$$$$$$$$$$$$$$$$$$$$$$ @@@@ $$ @@@@ $$$$$  OO  $$$$$$$$$$$$$$",
"$$$$$$$$$$$$$$$$$$$$$$$$$ @@@@ $$ @@@@ $$$$$$$  $$$$$$$$$$$$$$$$",
"$$$$$$$$$$$$$$$$$$$$$$$$$ @@@@ $$ @@@@ $$$$$$$$$$$$$$$$$$$$$$$$$",
"$$$$$$$$$$$$$$$$$$$$$$$$$ @@@@ $$  @@@ $$$$$$$$$$$$$$$$$$$$$$$$$",
"$$$$$$$$$$$$$$$$$$$$$$$$$ @@@ $$$  @@@ $$$$$$$$$$$$$$$$$$$$$$$$$",
"$$$$$$$$$$$$$$$$$$$$$$$$$ @@@ $$$$ @@@ $$$$$$$$$$$$$$$$$$$$$$$$$",
"$$$$$$$$$$$$$$$$$$$$$$$$$ @@@ $$$$ @@@ $$$$$$$$$$$$$$$$$$$$$$$$$",
"$$$$$$$$$$$$$$$$$$$$$$$$$ @@@ $$$$ @@@ $$$$$$$$$$$$$$$$$$$$$$$$$",
"$$$$$$$$$$$$$$$$$$$$$$$$$ @@@ $$$$ @@@ $$$$$$$$$$$$$$$$$$$$$$$$$",
"$$$$$$$$$$$$$$$$$$$$$$$$$ @@@ $$$$ @@ $$$$$$$$$$$$$$$$$$$$$$$$$$",
"$$$$$$$$$$$$$$$$$$$$$$$$$ @@@  $$$ @@@  $$$$$$$$$$$$$$$$$$$$$$$$",
"$$$$$$$$$$$$$$$$$$$$$$$$ @@@@@@ $ @@@@@@ $$$$$$$$$$$$$$$$$$$$$$$",
"$$$$$$$$$$$$$$$$$$$$$$$$ @@@@@@ $ @@@@@@@ $$$$$$$$$$$$$$$$$$$$$$",
"$$$$$$$$$$$$$$$$$$$$$$$$  @@@@ $$$ @@@@@@ $$$$$$$$$$$$$$$$$$$$$$",
"$$$$$$$$$$$$$$$$$$$$$$$$$     $$$$$      $$$$$$$$$$$$$$$$$$$$$$$",
"$$$$$$$$$$$$$$$$$$$$$$$$$$$$$$$$$$$$$$$$$$$$$$$$$$$$$$$$$$$$$$$$"
};
