/* XPM */
static char *result[] = {
/* columns rows colors chars-per-pixel */
"64 64 28 1 ",
"  c #B5CAF4",
". c #B6CAF4",
"X c #CDDCFC",
"o c #EBEEF0",
"O c #E6EDFE",
"+ c #E7EEFE",
"@ c #E8EFFE",
"# c #EFF2F3",
"$ c #E9F0FE",
"% c #ECF1FE",
"& c #F5F6F7",
"* c #F5F7F8",
"= c #F3F7FE",
"- c #F4F7FF",
"; c #F6F8FE",
": c #F6F8FF",
"> c #F9FAFA",
", c #FAFBFB",
"< c #F9FBFF",
"1 c #FBFCFC",
"2 c #FBFCFF",
"3 c #FCFDFE",
"4 c #FCFDFF",
"5 c #FDFDFF",
"6 c #FEFEFE",
"7 c #FEFEFF",
"8 c #FEFFFF",
"9 c white",
/* pixels */
"9999999999999999999999999999999999999999999999999999999999999999",
"9999999999999999999999999999999999999999999999999999999999999999",
"9999999999999999999999999999999999999999999999999999999999999999",
"9999999999999999999999999999999999999999999999999999999999999999",
"9999999999999999999999999999999999999999999999999999999999999999",
"999999999999999999999999999999999999999999999999999X999999999999",
"99999999999999999999999999999999999999999999999999X9999999999999",
"999999999999999999999999999999999999999999999999999X999999999999",
"9999999999999999999999999999999999999999999999999999999999999999",
"9999999999999999999999999999999999999999999999999999999999999999",
"999999999999999+999999999999999999999999999999999999999999999999",
"9999999999999999+99999999999999999999999999999999999999999999999",
"999999999999999 999999999999999999999999999999999999999999999999",
"9999999999999999999999999999999999999999999999999999999999999999",
"9999999999999999999999999999999999999999999999999999999999999999",
"9999999999999999999999999999999999999999999999999999999999999999",
"9999999999999999999999999999999999999999999999999999999999999999",
"9999999999999999999999999999999999999999999999999999999999999999",
"999999999999999999999999999999999==99999999999999999999999999999",
"999999999999999999999999999999999==<9999999999999999999999999999",
"99999999999999999999999999999999999<9999999999999999999999999999",
"999999999999999999999999999999999999$$99999999999999999999999999",
"999999999999999999999999999999999999$999999999999999999999999999",
"9999999999999999999999999999999999999999999999999999999999559999",
"9999999999999999999999999999999999999999999999999999999999559999",
"9999999999999999999999999999999999999999999999999999999999995599",
"9999999999999999999999999999999999999999999999999999999999995599",
"9999999999999999996999999999999999997799999999999999999999::9999",
"999999999999999999669999999999999999779999999999$$99999999::9999",
"999999999999999977997999999999999999779999999999$$999999999944**",
"9999999999999999779977999999999999997799999999$$99999999999944**",
"991199%%99999999998899999999999999997799779999$$999999999999,,99",
"991199%%9999999999889999999999999999779977999999..9999999999,,99",
"999999999999999999999999999999999999779977999999..999999999999##",
"99999999999999999999999999999999999977997799999999999999999999##",
"9977&&99999999999999999999999999999999997+9999999999999999999999",
"9977&&9999999999999999999999999999999999O79999999999999999999999",
"99oo==;;<<999999999999999999999999999999999999999999999999999999",
"99oo==;;<<999999999999999999999999999999999999999999999999999999",
"999999++22999999999999999999999999999999999999999999999999999999",
"999999++22999999999999999999999999999999999999999999999999999999",
"9999999999999999999999997799999999999999999999999999999999999999",
"9999999999999999999999999799999999999999999999999999999999999999",
"9999999999999999999999999997999999999999999999999999999999999999",
"9999999999999999999999999977999999999999999999999999999999999999",
"9999999999999999999999997799999999999999999999999999999999999999",
"9999999999999999999999999799999999999999999999999999:99999999999",
"9999999999999999999999999999999999999999999999999999:99999999999",
"9999999999999999999999999999999999999999999999999999@99999999999",
"9999999999999999999999999999999999999999999999999999@@9999999999",
"9999999999999999999999999999999999999999999999999999@@9999999999",
"99999999999999999999999999999999999999999999999999998@99:9999999",
"999999999999999999999999&&999+@9999999999999999999998899+:999999",
"999999999999999999999999&&;99+@9999999999999999999999999++999999",
"9999999999999999999999999;;<<99999999999999999999999999988999999",
"999999999999999999999999999<<99999999999999999339999999999999999",
"9999999999999999999999999.-9999999999999999999339999999999999999",
"9999999999999999999999999..99999999999999999>>999999999999999999",
"99999999999999999999999999999999999999999999>>999999999999999999",
"9999999999999999999999999999999999999999999999999999999999999999",
"9999999999999999999999999999999999999999999999999999999999999999",
"5599995599999999999999999999999999999999999999999999999999999999",
"5599995599999999999999999999999999999999999999999999999999999999",
"9999999999999999999999999999999999999999999999999999999999999999"
};
