/* XPM */
static char *result[] = {
/* columns rows colors chars-per-pixel */
"64 128 8 1 ",
"  c #45283C",
". c #663931",
"X c #3E734E",
"o c #7AB055",
"O c #4D9262",
"+ c #CBDBFC",
"@ c white",
"# c None",
/* pixels */
"################################################################",
"################################################################",
"##############################++++++############################",
"##############################++++++############################",
"##########################++++@@@@@@++##########################",
"##########################++++@@@@@@++##########################",
"########################++@@@@@@@@@@++++########################",
"########################++@@@@@@@@@@++++########################",
"######################++@@@@@@@@@@++++@@++######################",
"######################++@@@@@@@@@@++++@@++######################",
"####################++@@@@@@@@++++++@@@@@@++####################",
"####################++@@@@@@@@++++++@@@@@@++####################",
"####################XXOO++@@@@@@@@@@@@@@@@@@++##################",
"####################XXOO++@@@@@@@@@@@@@@@@@@++##################",
"##################XXOOoo++@@@@@@@@@@@@@@@@@@@@++################",
"##################XXOOoo++@@@@@@@@@@@@@@@@@@@@++################",
"##################XX@@@@@@++ooOO@@@@@@@@@@@@@@++################",
"##################XX@@@@@@++ooOO@@@@@@@@@@@@@@++################",
"################XX@@@@++++ooOOoo@@++@@@@@@@@@@++################",
"################XX@@@@++++ooOOoo@@++@@@@@@@@@@++################",
"##############XXOOOO++OOoooo@@++++OO++@@@@@@@@++XX##############",
"##############XXOOOO++OOoooo@@++++OO++@@@@@@@@++XX##############",
"##############@@OOOOOOooOOooOOooOOOOOO@@@@++++XXXX##############",
"##############@@OOOOOOooOOooOOooOOOOOO@@@@++++XXXX##############",
"##############@@@@ooOO@@@@@@@@OOOO@@@@@@++XXXXXXXX##############",
"##############@@@@ooOO@@@@@@@@OOOO@@@@@@++XXXXXXXX##############",
"############XX@@++++ooXX++++++@@@@++++++XXXXXXXXXXXX############",
"############XX@@++++ooXX++++++@@@@++++++XXXXXXXXXXXX############",
"############++++++ooooooXXXXXXXXXXXXXXOOOOOOXXXXXXXX############",
"############++++++ooooooXXXXXXXXXXXXXXOOOOOOXXXXXXXX############",
"############XXOOooooooOOOOOOOOOOOOOOOOOOOOOOOOXX@@XX############",
"############XXOOooooooOOOOOOOOOOOOOOOOOOOOOOOOXX@@XX############",
"##########XXOO@@@@OOooOOooOOOO@@@@@@@@@@@@@@@@@@++XXXX##########",
"##########XXOO@@@@OOooOOooOOOO@@@@@@@@@@@@@@@@@@++XXXX##########",
"########XXOO@@@@@@@@@@OOOO@@@@@@@@@@@@@@++XX++++OOXXXXXX########",
"########XXOO@@@@@@@@@@OOOO@@@@@@@@@@@@@@++XX++++OOXXXXXX########",
"########XXOO++++++@@@@++@@OOOOOO++@@@@++XXOOXXOOXXXXXX##########",
"########XXOO++++++@@@@++@@OOOOOO++@@@@++XXOOXXOOXXXXXX##########",
"########XXOOOOOOOO++++OOOOOOOOOOOO++++XXOOXXOOXXOOXXXX##########",
"########XXOOOOOOOO++++OOOOOOOOOOOO++++XXOOXXOOXXOOXXXX##########",
"######@@@@@@OOOOXXOOXXOOOOOOOOOOOOOOOOOOOOOOOOOOXXXXXX##########",
"######@@@@@@OOOOXXOOXXOOOOOOOOOOOOOOOOOOOOOOOOOOXXXXXX##########",
"######@@@@@@OOOOOOXXOOXXOOXXOOOOOOOOOOOOOOOOOOXXOOXXXXXX########",
"######@@@@@@OOOOOOXXOOXXOOXXOOOOOOOOOOOOOOOOOOXXOOXXXXXX########",
"######@@@@@@ooOOOOOOXXOOXXOOXXOOXXOOOOOOOOOOOOOOXXXX@@XXXX######",
"######@@@@@@ooOOOOOOXXOOXXOOXXOOXXOOOOOOOOOOOOOOXXXX@@XXXX######",
"######++@@@@OOooOOOOOOXXXXXXXXXXOOXXOOOOOO@@@@OO@@@@@@@@XX######",
"######++@@@@OOooOOOOOOXXXXXXXXXXOOXXOOOOOO@@@@OO@@@@@@@@XX######",
"######++@@@@@@OOooOOOOOOXXXXXXXXXXOOOOOO@@@@@@@@@@++++++XX######",
"######++@@@@@@OOooOOOOOOXXXXXXXXXXOOOOOO@@@@@@@@@@++++++XX######",
"######XX++@@@@@@OOooOOOOOO@@@@@@@@@@OOOO@@@@@@@@++OOOOXXXXXX####",
"######XX++@@@@@@OOooOOOOOO@@@@@@@@@@OOOO@@@@@@@@++OOOOXXXXXX####",
"######XXXX@@@@@@@@OOoo@@@@++++++++@@@@@@@@@@++++XXOOXXXXXXXX####",
"######XXXX@@@@@@@@OOoo@@@@++++++++@@@@@@@@@@++++XXOOXXXXXXXX####",
"####XXXX++++++@@@@@@@@@@OOOOXXXXXX++++++++++XXXXOOXXOOXXXXXXXX##",
"####XXXX++++++@@@@@@@@@@OOOOXXXXXX++++++++++XXXXOOXXOOXXXXXXXX##",
"##XX@@@@++XXXX++++++++++OOOOOOOOXXXXXXXXXXXXXXOOXXOOXXOOXXXXXX##",
"##XX@@@@++XXXX++++++++++OOOOOOOOXXXXXXXXXXXXXXOOXXOOXXOOXXXXXX##",
"##XX@@@@@@XXXXXXXXXXXXOOOOOOOOOOOOOOXXXXXXOOOOXXOOXX@@XXXXXXXX##",
"##XX@@@@@@XXXXXXXXXXXXOOOOOOOOOOOOOOXXXXXXOOOOXXOOXX@@XXXXXXXX##",
"##XX++@@@@@@ooOOOOOOOOOOOOOOOOOOOOOOOOOOOOOOOOOO@@@@@@++XXXXXX##",
"##XX++@@@@@@ooOOOOOOOOOOOOOOOOOOOOOOOOOOOOOOOOOO@@@@@@++XXXXXX##",
"##XXXX++@@@@@@ooOOOOOOOOOOOOOOOOOOOOOOOOOOOO@@@@@@@@++XXXXXXXX##",
"##XXXX++@@@@@@ooOOOOOOOOOOOOOOOOOOOOOOOOOOOO@@@@@@@@++XXXXXXXX##",
"##XXXXOO++++@@@@@@OOOO@@@@@@@@@@++OOOOOOOO++++++++++XXXXOOXX@@##",
"##XXXXOO++++@@@@@@OOOO@@@@@@@@@@++OOOOOOOO++++++++++XXXXOOXX@@##",
"##XXXXXXOOOO++++OOOO++@@@@@@@@++OOOOOOOOOOOOOOXXOOXXXXXXXX@@++##",
"##XXXXXXOOOO++++OOOO++@@@@@@@@++OOOOOOOOOOOOOOXXOOXXXXXXXX@@++##",
"XXXXXXXXXXOOOOOOOOOOOO++++++++OOOOOOOOOOOOXXXXXXXXXXXXXX@@++XX##",
"XXXXXXXXXXOOOOOOOOOOOO++++++++OOOOOOOOOOOOXXXXXXXXXXXXXX@@++XX##",
"XXXXXXXXXXXXXXXXXXOOOOOOOOOOOOOOOOOOOOOOOOOOOOOOOO@@@@@@++XXXXXX",
"XXXXXXXXXXXXXXXXXXOOOOOOOOOOOOOOOOOOOOOOOOOOOOOOOO@@@@@@++XXXXXX",
"XX@@XXOOOOOOOOOOOO@@@@OOOOOOOOOOOOOOOOOOOOOOOOOO@@@@OOOOOOXXXXXX",
"XX@@XXOOOOOOOOOOOO@@@@OOOOOOOOOOOOOOOOOOOOOOOOOO@@@@OOOOOOXXXXXX",
"XX@@@@@@OOXX@@++++@@@@@@@@@@@@XXXXXXXXOOoooo@@@@@@++OOXXXXXXXXXX",
"XX@@@@@@OOXX@@++++@@@@@@@@@@@@XXXXXXXXOOoooo@@@@@@++OOXXXXXXXXXX",
"XX@@@@@@@@OOXXXXXX++++++@@XXXXXXXXXXOO@@@@@@++++OOXXXXXXXXXXXXXX",
"XX@@@@@@@@OOXXXXXX++++++@@XXXXXXXXXXOO@@@@@@++++OOXXXXXXXXXXXXXX",
"XX++@@@@@@OOXXXXXXXXXXXXXXXXOO++++++++++++++++++++XXXXOOOOXXXXXX",
"XX++@@@@@@OOXXXXXXXXXXXXXXXXOO++++++++++++++++++++XXXXOOOOXXXXXX",
"XX++@@@@++++OOXXXXXXXXXXXXXXXXXXXXXXXXXXXXXXXXXXXXOOOOOOOOOOXXXX",
"XX++@@@@++++OOXXXXXXXXXXXXXXXXXXXXXXXXXXXXXXXXXXXXOOOOOOOOOOXXXX",
"XXOO++@@@@@@@@OOXXXXXXXXXXXXXXXXXXXXOOOOOOOO@@@@@@@@@@++OOOOXXXX",
"XXOO++@@@@@@@@OOXXXXXXXXXXXXXXXXXXXXOOOOOOOO@@@@@@@@@@++OOOOXXXX",
"XXOOOO++++@@@@@@@@OOOOOOOO@@@@OOOOOOOOOO@@@@@@@@++++ooOOOOOOXXXX",
"XXOOOO++++@@@@@@@@OOOOOOOO@@@@OOOOOOOOOO@@@@@@@@++++ooOOOOOOXXXX",
"##XXOOOOoo++++OOOOOOOO@@++++++@@@@OO@@++++++++++OOOOOOOOXXXXXXXX",
"##XXOOOOoo++++OOOOOOOO@@++++++@@@@OO@@++++++++++OOOOOOOOXXXXXXXX",
"####XXXXXXOOOO++++OOOOOOOOOOOOOOOOOOOOOOOOOOOOOOOOOOXXXXXXXXXX##",
"####XXXXXXOOOO++++OOOOOOOOOOOOOOOOOOOOOOOOOOOOOOOOOOXXXXXXXXXX##",
"######XXXXXXXXOOOOOOOOOOOOOOXXXXOOOOOOOOOOOOOOOOXXXXXXXXXXXX####",
"######XXXXXXXXOOOOOOOOOOOOOOXXXXOOOOOOOOOOOOOOOOXXXXXXXXXXXX####",
"########XXXXXXXXXXOOOOOOOOXXXXXXXXXXXXXXXXXXXXXXXXXXXXXXXX######",
"########XXXXXXXXXXOOOOOOOOXXXXXXXXXXXXXXXXXXXXXXXXXXXXXXXX######",
"############XXXXXXXXXXXXXXXXXXXXXXXXXXXXXXXXXXXXXXXXXXXX########",
"############XXXXXXXXXXXXXXXXXXXXXXXXXXXXXXXXXXXXXXXXXXXX########",
"################XXXXXXXXXXXX            XXXX####################",
"################XXXXXXXXXXXX            XXXX####################",
"##################XXXXXX                ########################",
"##################XXXXXX                ########################",
"######################........  ..  ..  ########################",
"######################........  ..  ..  ########################",
"######################........  ..  ..  ########################",
"######################........  ..  ..  ########################",
"######################............  ..    ######################",
"######################............  ..    ######################",
"####################..  ..........  ..    ######################",
"####################..  ..........  ..    ######################",
"##################..    ..........  ..    ..####################",
"##################..    ..........  ..    ..####################",
"########################....  ....          ..##################",
"########################....  ....          ..##################",
"######################......  ..        ..######################",
"######################......  ..        ..######################",
"######################..                  ..####################",
"######################..                  ..####################",
"######################..################    ####################",
"######################..################    ####################",
"################################################################",
"################################################################",
"################################################################",
"################################################################",
"################################################################",
"################################################################",
"################################################################",
"################################################################",
"################################################################",
"################################################################"
};
