/* XPM */
static char *_f37b35457d44be0ce643b1377b24b83pLdsaXd0jkkRCHxq[] = {
/* columns rows colors chars-per-pixel */
"32 64 8 1 ",
"  c None",
". c #45283C",
"X c #663931",
"o c #3E734E",
"O c #7AB055",
"+ c #4D9262",
"@ c #CBDBFC",
"# c white",
/* pixels */
"                                ",
"                                ",
"               ###              ",
"             #####@             ",
"            #####@@#            ",
"           ####@@@###           ",
"          o+@#########          ",
"         o+O@##########         ",
"         o###@O+#######         ",
"        o##@@O+O#@#####@        ",
"       o++@+OO#@@+@####@o       ",
"       #+++O+O+O+++##@@oo       ",
"       ##O+####++###@oooo       ",
"      o#@@Oo@@@##@@@oooooo      ",
"      @@@OOOooooooo+++oooo      ",
"      o+OOO++++++++++++o#o      ",
"     o+##+O+O++#########@oo     ",
"    o+#####++#######@o@@+ooo    ",
"    o+@@@##@#+++@##@o+o+ooo     ",
"    o++++@@++++++@@o+o+o+oo     ",
"   ###++o+o+++++++++++++ooo     ",
"   ###+++o+o+o+++++++++o+ooo    ",
"   ###O+++o+o+o+o+++++++oo#oo   ",
"   @##+O+++ooooo+o+++##+####o   ",
"   @###+O+++ooooo+++#####@@@o   ",
"   o@###+O+++#####++####@++ooo  ",
"   oo####+O##@@@@#####@@o+oooo  ",
"  oo@@@#####++ooo@@@@@oo+o+oooo ",
" o##@oo@@@@@++++ooooooo+o+o+ooo ",
" o###oooooo+++++++ooo++o+o#oooo ",
" o@###O+++++++++++++++++###@ooo ",
" oo@###O++++++++++++++####@oooo ",
" oo+@@###++#####@++++@@@@@oo+o# ",
" ooo++@@++@####@+++++++o+oooo#@ ",
"ooooo++++++@@@@++++++ooooooo#@o ",
"ooooooooo++++++++++++++++###@ooo",
"o#o++++++##+++++++++++++##+++ooo",
"o###+o#@@######oooo+OO###@+ooooo",
"o####+ooo@@@#ooooo+###@@+ooooooo",
"o@###+oooooooo+@@@@@@@@@@oo++ooo",
"o@##@@+oooooooooooooooooo+++++oo",
"o+@####+oooooooooo++++#####@++oo",
"o++@@####++++##+++++####@@O+++oo",
" o++O@@++++#@@@##+#@@@@@++++oooo",
"  ooo++@@+++++++++++++++++ooooo ",
"   oooo+++++++oo++++++++oooooo  ",
"    ooooo++++oooooooooooooooo   ",
"      oooooooooooooooooooooo    ",
"        oooooo......oo          ",
"         ooo........            ",
"           XXXX.X.X.            ",
"           XXXX.X.X.            ",
"           XXXXXX.X..           ",
"          X.XXXXX.X..           ",
"         X..XXXXX.X..X          ",
"            XX.XX.....X         ",
"           XXX.X....X           ",
"           X.........X          ",
"           X        ..          ",
"                                ",
"                                ",
"                                ",
"                                ",
"                                "
};
