/* XPM */
static char *result[] = {
/* columns rows colors chars-per-pixel */
"64 64 8 1 ",
"  c #311C2A",
". c #482823",
"X c #45283C",
"o c #663931",
"O c #8F563B",
"+ c #CBDBFC",
"@ c white",
"# c None",
/* pixels */
"################################################################",
"################################################################",
"################################################################",
"################################################################",
"######################++++++++++################################",
"######################++++++++++################################",
"################++++++@@@@@@@@@@++++++++++++++++################",
"################++++++@@@@@@@@@@++++++++++++++++################",
"############++++@@@@@@@@@@@@@@@@@@@@@@@@@@@@@@@@++++############",
"############++++@@@@@@@@@@@@@@@@@@@@@@@@@@@@@@@@++++############",
"##########++@@@@@@@@++@@@@@@@@@@++@@@@@@@@@@@@@@@@@@++##########",
"##########++@@@@@@@@++@@@@@@@@@@++@@@@@@@@@@@@@@@@@@++##########",
"########++@@@@++++++++++++++++++++++@@@@@@@@@@++@@@@@@++########",
"########++@@@@++++++++++++++++++++++@@@@@@@@@@++@@@@@@++########",
"########++@@++++++OOOOOOOOOOOOOOOOOO++++@@@@@@++++OO++##########",
"########++@@++++++OOOOOOOOOOOOOOOOOO++++@@@@@@++++OO++##########",
"##########OOOOOOOOOOOOOOOOOOOOOOOOOOOOOO++++++++OOOOoo##########",
"##########OOOOOOOOOOOOOOOOOOOOOOOOOOOOOO++++++++OOOOoo##########",
"##########OOooooOOooOOooOOOOOOOOooooOOooOOOOooOOOOOOoo##########",
"##########OOooooOOooOOooOOOOOOOOooooOOooOOOOooOOOOOOoo##########",
"##########OOooOOOOooOOooooOOOOOOooooOOooOOooooOOooOOoo##########",
"##########OOooOOOOooOOooooOOOOOOooooOOooOOooooOOooOOoo##########",
"##########OOOOOOOOOOOOOOOOOOOOOOOOOOOOOOOOOOOOOOOOOOoo##########",
"##########OOOOOOOOOOOOOOOOOOOOOOOOOOOOOOOOOOOOOOOOOOoo##########",
"##########OOOOOOOOOOOOOOOOOOOOOOOOOOOOOOOOOOOOOOOOOOoo##########",
"##########OOOOOOOOOOOOOOOOOOOOOOOOOOOOOOOOOOOOOOOOOOoo##########",
"##########OOOOooOOooooOOOOOOOOOOooOOooooOOOOOOooooOOoo##########",
"##########OOOOooOOooooOOOOOOOOOOooOOooooOOOOOOooooOOoo##########",
"##########OOooooOOOOooOOooooOOOOooOOooooOOooOOooOOOOoo##########",
"##########OOooooOOOOooOOooooOOOOooOOooooOOooOOooOOOOoo##########",
"##########OOOOOOOOOOOOOOOOOOOOOOOOOOOOOOOOOOOOOOOOOOoo##########",
"##########OOOOOOOOOOOOOOOOOOOOOOOOOOOOOOOOOOOOOOOOOOoo##########",
"##########OOOOOOOOOOOOOOOOOOOOOOOOOOOOOOOOOOOOOOOOOOoo##########",
"##########OOOOOOOOOOOOOOOOOOOOOOOOOOOOOOOOOOOOOOOOOOoo##########",
"##########ooooOOOOOOOOOOOOOOOOOOOOOOOOOOOOOOOOOOOOoooo##########",
"##########ooooOOOOOOOOOOOOOOOOOOOOOOOOOOOOOOOOOOOOoooo##########",
"############oooooooooooooooooooooooooooooooooooooooo############",
"############oooooooooooooooooooooooooooooooooooooooo############",
"##############################XXXX##############################",
"##############################XXXX##############################",
"##############################ooXX##############################",
"##############################ooXX##############################",
"##############################oooo##############################",
"##############################oooo##############################",
"##############################....##############################",
"##############################....##############################",
"##############################....##############################",
"##############################....##############################",
"##############################....##############################",
"##############################....##############################",
"##############################    ##############################",
"##############################    ##############################",
"################################################################",
"################################################################",
"################################################################",
"################################################################",
"################################################################",
"################################################################",
"################################################################",
"################################################################",
"################################################################",
"################################################################",
"################################################################",
"################################################################"
};
