/* XPM */
static char *result[] = {
/* columns rows colors chars-per-pixel */
"64 128 6 1 ",
"  c black",
". c #7C4236",
"X c #6EC5ED",
"o c #AB92E0",
"O c white",
"+ c None",
/* pixels */
"++++++++++++++++++++++++++++++++++++++++++++++++++++++++++++++++",
"++++++++++++++++++++++++++++++++++++++++++++++++++++++++++++++++",
"++++++++++++++++++++++++++++++++++++++++++++++++++++++++++++++++",
"++++++++++++++++++++++++++++++++++++++++++++++++++++++++++++++++",
"++++++++++++++++++++++++++++++++++++++++++++++++++++++++++++++++",
"++++++++++++++++++++++++++++++++++++++++++++++++++++++++++++++++",
"++++++++++++++++++++++++++++++++++++++++++++++++++++++++++++++++",
"++++++++++++++++++++++++++++++++++++++++++++++++++++++++++++++++",
"++++++++++++++++++++++++++++++++++++++++++++++++++++++++++++++++",
"++++++++++++++++++++++++++++++++++++++++++++++++++++++++++++++++",
"++++++++++++++++++++++++++++++++++++++++++++++++++++++++++++++++",
"++++++++++++++++++++++++++++++++++++++++++++++++++++++++++++++++",
"++++++++++++++++++++++++++++++++++++++++++++++++++++++++++++++++",
"++++++++++++++++++++++++++++++++++++++++++++++++++++++++++++++++",
"++++++++++++++++++++++++++++++++++++++++++++++++++++++++++++++++",
"++++++++++++++++++++++++++++++++++++++++++++++++++++++++++++++++",
"++++++++++++++++++++++++++++++++++++++++++++++++++++++++++++++++",
"++++++++++++++++++++++++++++++++++++++++++++++++++++++++++++++++",
"++++++++++++++++++++++++++++++++++++++++++++++++++++++++++++++++",
"++++++++++++++++++++++++++++++++++++++++++++++++++++++++++++++++",
"++++++++++++++++++++++++++++++++++++++++++++++++++++++++++++++++",
"++++++++++++++++++++++++++++++++++++++++++++++++++++++++++++++++",
"++++++++++++++++++++++++++++++++++++++++++++++++++++++++++++++++",
"++++++++++++++++++++++++++++++++++++++++++++++++++++++++++++++++",
"++++++++++++++++++++++++++++++++++++++++++++++++++++++++++++++++",
"++++++++++++++++++++++++++++++++++++++++++++++++++++++++++++++++",
"++++++++++++++++++++++++++++++++++++++++++++++++++++++++++++++++",
"++++++++++++++++++++++++++++++++++++++++++++++++++++++++++++++++",
"++++++++++++++++++++++++++++++++++++++++++++++++++++++++++++++++",
"++++++++++++++++++++++++++++++++++++++++++++++++++++++++++++++++",
"++++++++++++++++++++++++++++++++++++++++++++++++++++++++++++++++",
"++++++++++++++++++++++++++++++++++++++++++++++++++++++++++++++++",
"++++++++++++++++++++++++++++++++++++++++++++++++++++++++++++++++",
"++++++++++++++++++++++++++++++++++++++++++++++++++++++++++++++++",
"++++++++++++++++++++++++++++++++++++++++++++++++++++++++++++++++",
"++++++++++++++++++++++++++++++++++++++++++++++++++++++++++++++++",
"++++++++++++++++++++++++++++++++++++++++++++++++++++++++++++++++",
"++++++++++++++++++++++++++++++++++++++++++++++++++++++++++++++++",
"++++++++++++++++++++++++++++++++++++++++++++++++++++++++++++++++",
"++++++++++++++++++++++++++++++++++++++++++++++++++++++++++++++++",
"++++++++++++++++++++++++++++++++++++++++++++++++++++++++++++++++",
"++++++++++++++++++++++++++++++++++++++++++++++++++++++++++++++++",
"++++++++++++++++++++++++++++++++++++++++++++++++++++++++++++++++",
"++++++++++++++++++++++++++++++++++++++++++++++++++++++++++++++++",
"++++++++++++++++++++++++++++++++++++++++++++++++++++++++++++++++",
"++++++++++++++++++++++++++++++++++++++++++++++++++++++++++++++++",
"++++++++++++++++++++++++++++++++++++++++++++++++++++++++++++++++",
"++++++++++++++++++++++++++++++++++++++++++++++++++++++++++++++++",
"++++++++++++++++++++++++++++++++++++++++++++++++++++++++++++++++",
"++++++++++++++++++++++++++++++++++++++++++++++++++++++++++++++++",
"++++++++++++++++++++++++++++++++++++++++++++++++++++++++++++++++",
"++++++++++++++++++++++++++++++++++++++++++++++++++++++++++++++++",
"++++++++++++++++++++++++++++++++++++++++++++++++++++++++++++++++",
"++++++++++++++++++++++++++++++++++++++++++++++++++++++++++++++++",
"++++++++++++++++++++++++++++++++++++++++++++++++++++++++++++++++",
"++++++++++++++++++++++++++++++++++++++++++++++++++++++++++++++++",
"++++++++++++++++++++++++++++++++++++++++++++++++++++++++++++++++",
"++++++++++++++++++++++++++++       +++++++++++++++++++++++++++++",
"+++++++++++++++++++++++++   .......   ++++++++++++++++++++++++++",
"+++++++++++++++++++++++  .............  ++++++++++++++++++++++++",
"++++++++++++++++++++++ ................. +++++++++++++++++++++++",
"+++++++++++++++++++++ ......... ......... ++++++++++++++++++++++",
"+++++++++++++++++++++ .......  O   ....... +++++++++++++++++++++",
"+++++++++++++++++++++ ....   OOOOOO    ... +++++++++++++++++++++",
"+++++++++++++++++++++ .   OOOOOOOOOOOO   . +++++++  ++++++++++++",
"++++++++++++    +++++ . OOOOOOOOOOOOOOO .. +++++  O  +++++++++++",
"+++++++++++ OOO  ++++ . OOO   OOO   OOO . ++++++ OOO +++++++++++",
"++++++++++++ OOO +++++  OO OOO O OOO OO  +++++++ OOO +++++++++++",
"+++++++++++++ O +++++++    O O   O O    +++++++++ O ++++++++++++",
"++++++++++++    +++++++ OO OOO O OOO OO ++++++++     +++++++++++",
"++++++++++++ ooo ++++++ OOO   O O   OOO ++++++++ ooo +++++++++++",
"++++++++++++ ooo ++++++ OOOOOOO OOOOOOO ++++++++ ooo +++++++++++",
"++++++++++++ ooo ++++++ OOOOOOOO OOOOOO +++++++ ooo ++++++++++++",
"++++++++++++ oooo ++++++ OOOOO  OOOOOO ++++++++ ooo ++++++++++++",
"+++++++++++++ ooo ++++++ OOOOOOOOOOOOO ++++++++ ooo ++++++++++++",
"++++++++++++++ ooo ++++++ OOOOOOOOOOO ++++++++ oooo ++++++++++++",
"++++++++++++++ ooo ++++++  OOO   OOOO ++++++++ ooo +++++++++++++",
"++++++++++++++ ooo +++++++  OOOOOOOO ++++++++ oooo +++++++++++++",
"+++++++++++++++ ooo ++++++++  OOOO  +++++++++ oooo +++++++++++++",
"++++++++++++++++ ooo +++++++       +++++++++ oooo ++++++++++++++",
"++++++++++++++++ ooo ++++++++ OOO +++++++++ ooooo ++++++++++++++",
"+++++++++++++++++ ooo +++++++ ooo ++++++++ ooooo +++++++++++++++",
"+++++++++++++++++ oooo +++    ooo    ++++ ooooo ++++++++++++++++",
"++++++++++++++++++ oooo   oooooooooo     ooooo +++++++++++++++++",
"+++++++++++++++++++ ooooooooooooooooooooooooo ++++++++++++++++++",
"++++++++++++++++++++ ooooooooooooooooooooooo +++++++++++++++++++",
"+++++++++++++++++++++ oooooooooooooooooooo  ++++++++++++++++++++",
"++++++++++++++++++++++   ooooooooooooooo  ++++++++++++++++++++++",
"++++++++++++++++++++++++  ooooooooooooo ++++++++++++++++++++++++",
"+++++++++++++++++++++++++ oooooooooooo +++++++++++++++++++++++++",
"+++++++++++++++++++++++++ oooooooooooo +++++++++++++++++++++++++",
"+++++++++++++++++++++++++ oooooooooooo +++++++++++++++++++++++++",
"+++++++++++++++++++++++++ oooooooooooo +++++++++++++++++++++++++",
"+++++++++++++++++++++++++ oooooooooooo +++++++++++++++++++++++++",
"+++++++++++++++++++++++++ oooooooooooo +++++++++++++++++++++++++",
"+++++++++++++++++++++++++ oooooooooooo +++++++++++++++++++++++++",
"+++++++++++++++++++++++++ oooooooooooo +++++++++++++++++++++++++",
"+++++++++++++++++++++++++ oooooooooooo +++++++++++++++++++++++++",
"+++++++++++++++++++++++++ oooooooooooo +++++++++++++++++++++++++",
"+++++++++++++++++++++++++ oooooooooooo +++++++++++++++++++++++++",
"+++++++++++++++++++++++++ XXXXXXXXXXXX +++++++++++++++++++++++++",
"+++++++++++++++++++++++++ XXXXXXXXXXXX +++++++++++++++++++++++++",
"+++++++++++++++++++++++++ XXXXXXXXXXXX +++++++++++++++++++++++++",
"+++++++++++++++++++++++++ XXXX    XXXX +++++++++++++++++++++++++",
"+++++++++++++++++++++++++ XXXX ++ XXXX +++++++++++++++++++++++++",
"+++++++++++++++++++++++++ XXXX ++ XXXX +++++++++++++++++++++++++",
"+++++++++++++++++++++++++ XXXX ++ XXXX +++++++++++++++++++++++++",
"+++++++++++++++++++++++++ XXXX ++ XXXX +++++++++++++++++++++++++",
"+++++++++++++++++++++++++ XXXX ++ XXXX +++++++++++++++++++++++++",
"+++++++++++++++++++++++++ XXXX ++ XXXX +++++++++++++++++++++++++",
"+++++++++++++++++++++++++ XXXX ++ XXXX +++++++++++++++++++++++++",
"+++++++++++++++++++++++++ XXXX ++ XXXX +++++++++++++++++++++++++",
"+++++++++++++++++++++++++ XXXX ++ XXXX +++++++++++++++++++++++++",
"+++++++++++++++++++++++++ XXXX ++ XXXX +++++++++++++++++++++++++",
"+++++++++++++++++++++++++ XXXX ++ XXXX +++++++++++++++++++++++++",
"+++++++++++++++++++++++++ XXXX ++  XXX +++++++++++++++++++++++++",
"+++++++++++++++++++++++++ XXX +++  XXX +++++++++++++++++++++++++",
"+++++++++++++++++++++++++ XXX ++++ XXX +++++++++++++++++++++++++",
"+++++++++++++++++++++++++ XXX ++++ XXX +++++++++++++++++++++++++",
"+++++++++++++++++++++++++ XXX ++++ XXX +++++++++++++++++++++++++",
"+++++++++++++++++++++++++ XXX ++++ XXX +++++++++++++++++++++++++",
"+++++++++++++++++++++++++ XXX ++++ XX ++++++++++++++++++++++++++",
"+++++++++++++++++++++++++ XXX  +++ XXX  ++++++++++++++++++++++++",
"++++++++++++++++++++++++ XXXXXX + XXXXXX +++++++++++++++++++++++",
"++++++++++++++++++++++++ XXXXXX + XXXXXXX ++++++++++++++++++++++",
"++++++++++++++++++++++++  XXXX +++ XXXXXX ++++++++++++++++++++++",
"+++++++++++++++++++++++++     +++++      +++++++++++++++++++++++",
"++++++++++++++++++++++++++++++++++++++++++++++++++++++++++++++++"
};
