/* XPM */
static char *result[] = {
/* columns rows colors chars-per-pixel */
"64 128 11 1 ",
"  c black",
". c #7C4236",
"X c #C52A2A",
"o c #E64242",
"O c #FFAD4E",
"+ c #D8A46E",
"@ c #8C64DF",
"# c #79B081",
"$ c #6EC5ED",
"% c white",
"& c None",
/* pixels */
"&&&&&&&&&&&&&&&&&&&&&&&&&&&&&&&&&&&&&&&&&&&&&&&&&&&&&&&&&&&&&&&&",
"&&&&&&&&&&&&&&&&&&&&&&&&&&&&&&&&&&&&&&&&&&&&&&&&&&&&&&&&&&&&&&&&",
"&&&&&&&&&&&&&&&&&&&&&&&&&&&&&&&&&&&&&&&&&&&&&&&&&&&&&&&&&&&&&&&&",
"&&&&&&&&&&&&&&&&&&&&&&&&&&&&&&&&&&&&&&&&&&&&&&&&&&&&&&&&&&&&&&&&",
"&&&&&&&&&&&&&&&&&&&&&&&&&&&&&&&&&&&&&&&&&&&&&&&&&&&&&&&&&&&&&&&&",
"&&&&&&&&&&&&&&&&&&&&&&&&&&&&&&&&&&&&&&&&&&&&&&&&&&&&&&&&&&&&&&&&",
"&&&&&&&&&&&&&&&&&&&&&&&&&&&&&&&&&&&&&&&&&&&&&&&&&&&&&&&&&&&&&&&&",
"&&&&&&&&&&&&&&&&&&&&&&&&&&&&&&&&&&&&&&&&&&&&&&&&&&&&&&&&&&&&&&&&",
"&&&&&&&&&&&&&&&&&&&&&&&&&&&&&&&&&&&&&&&&&&&&&&&&&&&&&&&&&&&&&&&&",
"&&&&&&&&&&&&&&&&&&&&&&&&&&&&&&&&&&&&&&&&&&&&&&&&&&&&&&&&&&&&&&&&",
"&&&&&&&&&&&&&&&&&&&&&&&&&&&&&&&&&&&&&&&&&&&&&&&&&&&&&&&&&&&&&&&&",
"&&&&&&&&&&&&&&&&&&&&&&&&&&&&&&&&&&&&&&&&&&&&&&&&&&&&&&&&&&&&&&&&",
"&&&&&&&&&&&&&&&&&&&&&&&&&&&&&&&&&&&&&&&&&&&&&&&&&&&&&&&&&&&&&&&&",
"&&&&&&&&&&&&&&&&&&&&&&&&&&&&&&&&&&&&&&&&&&&&&&&&&&&&&&&&&&&&&&&&",
"&&&&&&&&&&&&&&&&&&&&&&&&&&&&&&&&&&&&&&&&&&&&&&&&&&&&&&&&&&&&&&&&",
"&&&&&&&&&&&&&&&&&&&&&&&&&&&&&&&&&&&&&&&&&&&&&&&&&&&&&&&&&&&&&&&&",
"&&&&&&&&&&&&&&&&&&&&&&&&&&&&&&&&&&&&&&&&&&&&&&&&&&&&&&&&&&&&&&&&",
"&&&&&&&&&&&&&&&&&&&&&&&&&&&&&&&&&&&&&&&&&&&&&&&&&&&&&&&&&&&&&&&&",
"&&&&&&&&&&&&&&&&&&&&&&&&&&&&&&&&&&&&&&&&&&&&&&&&&&&&&&&&&&&&&&&&",
"&&&&&&&&&&&&&&&&&&&&&&&&&&&&&&&&&&&&&&&&&&&&&&&&&&&&&&&&&&&&&&&&",
"&&&&&&&&&&&&&&&&&&&&&&&&&&&&&&&&&&&&&&&&&&&&&&&&&&&&&&&&&&&&&&&&",
"&&&&&&&&&&&&&&&&&&&&&&&&&&&&&&&&&&&&&&&&&&&&&&&&&&&&&&&&&&&&&&&&",
"&&&&&&&&&&&&&&&&&&&&&&&&&&&&&&&&&&&&&&&&&&&&&&&&&&&&&&&&&&&&&&&&",
"&&&&&&&&&&&&&&&&&&&&&&&&&&&&&&&&&&&&&&&&&&&&&&&&&&&&&&&&&&&&&&&&",
"&&&&&&&&&&&&&&&&&&&&&&&&&&&&&&&&&&&&&&&&&&&&&&&&&&&&&&&&&&&&&&&&",
"&&&&&&&&&&&&&&&&&&&&&&&&&&&&&&&&&&&&&&&&&&&&&&&&&&&&&&&&&&&&&&&&",
"&&&&&&&&&&&&&&&&&&&&&&&&&&&&&&&&&&&&&&&&&&&&&&&&&&&&&&&&&&&&&&&&",
"&&&&&&&&&&&&&&&&&&&&&&&&&&&&&&&&&&&&&&&&&&&&&&&&&&&&&&&&&&&&&&&&",
"&&&&&&&&&&&&&&&&&&&&&&&&&&&&&&&&&&&&&&&&&&&&&&&&&&&&&&&&&&&&&&&&",
"&&&&&&&&&&&&&&&&&&&&&&&&&&&&&&&&&&&&&&&&&&&&&&&&&&&&&&&&&&&&&&&&",
"&&&&&&&&&&&&&&&&&&&&&&&&&&&&&&&&&&&&&&&&&&&&&&&&&&&&&&&&&&&&&&&&",
"&&&&&&&&&&&&&&&&&&&&&&&&&&&&&&&&&&&&&&&&&&&&&&&&&&&&&&&&&&&&&&&&",
"&&&&&&&&&&&&&&&&&&&&&&&&&&&&&&&&&&&&&&&&&&&&&&&&&&&&&&&&&&&&&&&&",
"&&&&&&&&&&&&&&&&&&&&&&&&&&&&&&&&&&&&&&&&&&&&&&&&&&&&&&&&&&&&&&&&",
"&&&&&&&&&&&&&&&&&&&&&&&&&&&&&&&&&&&&&&&&&&&&&&&&&&&&&&&&&&&&&&&&",
"&&&&&&&&&&&&&&&&&&&&&&&&&&&&&&&&&&&&&&&&&&&&&&&&&&&&&&&&&&&&&&&&",
"&&&&&&&   &&&&&&   &&&&&&&   &&&&&&   &&&&&&&   &&&&&&   &&&&&&&",
"&&&&&& XXX &&&& XXX &&&&& XXX &&&& XXX &&&&& XXX &&&& XXX &&&&&&",
"&&&&& XXXXX && XoooX &&& XXXXX && XoooX &&& XXXXX && XoooX &&&&&",
"&&&& XXXXXXX  XXXXooX & XXXXXXX  XXXXooX & XXXXXXX  XXXXooX &&&&",
"&&&& XXXXXXXXXXXXXXoX & XXXXXXXXXXXXXXoX & XXXXXXXXXXXXXXoX &&&&",
"&&&& XXXXXXXXXXXXXXXX & XXXXXXXXXXXXXXXX & XXXXXXXXXXXXXXXX &&&&",
"&&&& XXXXXXXXXXXXXXXX & XXXXXXXXXXXXXXXX & XXXXXXXXXXXXXXXX &&&&",
"&&&&& XXXXXXXXXXXXXX &&& XXXXXXXXXXXXXX &&& XXXXXXXXXXXXXX &&&&&",
"&&&&& XXXXXXXXXXXXXX &&& XXXXXXXXXXXXXX &&& XXXXXXXXXXXXXX &&&&&",
"&&&&&& XXXXXXXXXXXX &&&&& XXXXXXXXXXXX &&&&& XXXXXXXXXXXX &&&&&&",
"&&&&&&& XoXXXXXXXX &&&&&&& XoXXXXXXXX &&&&&&& XoXXXXXXXX &&&&&&&",
"&&&&&&&& XoXXXXXX &&&&&&&&& XoXXXXXX &&&&&&&&& XoXXXXXX &&&&&&&&",
"&&&&&&&&& XoXXXX &&&&&&&&&&& XoXXXX &&&&&&&&&&& XoXXXX &&&&&&&&&",
"&&&&&&&&&& XXXX &&&&&&&&&&&&& XXXX &&&&&&&&&&&&& XXXX &&&&&&&&&&",
"&&&&&&&&&&& XX &&&&&&&&&&&&&&& XX &&&&&&&&&&&&&&& XX &&&&&&&&&&&",
"&&&&&&&&&&&&  &&&&&&&&&&&&&&&&&  &&&&&&&&&&&&&&&&&  &&&&&&&&&&&&",
"&&&&&&&&&&&&&&&&&&&&&&&&&&&&&&&&&&&&&&&&&&&&&&&&&&&&&&&&&&&&&&&&",
"&&&&&&&&&&&&&&&&&&&&&&&&&&&&&&&&&&&&&&&&&&&&&&&&&&&&&&&&&&&&&&&&",
"&&&&&&&&&&&&&&&&&&&&&&&&&&&&&&&&&&&&&&&&&&&&&&&&&&&&&&&&&&&&&&&&",
"&&&&&&&&&&&&&&&&&&&&&&&&&&&&&&&&&&&&&&&&&&&&&&&&&&&&&&&&&&&&&&&&",
"&&&&&&&&&&&&&&&&&&&&&&&&&&&&&&&&&&&&&&&&&&&&&&&&&&&&&&&&&&&&&&&&",
"&&&&&&&&&&&&&&&&&&&&&&&&&&&&       &&&&&&&&&&&&&&&&&&&&&&&&&&&&&",
"&&&&&&&&&&&&&&&&&&&&&&&&&   .......   &&&&&&&&&&&&&&&&&&&&&&&&&&",
"&&&&&&&&&&&&&&&&&&&&&&&  .............  &&&&&&&&&&&&&&&&&&&&&&&&",
"&&&&&&&&&&&&&&&&&&&&&& ................. &&&&&&&&&&&&&&&&&&&&&&&",
"&&&&&&&&&&&&&&&&&&&&& ......... ......... &&&&&&&&&&&&&&&&&&&&&&",
"&&&&&&&&&&&&&&&&&&&&& .......  %   ....... &&&&&&&&&&&&&&&&&&&&&",
"&&&&&&&&&&&&&&&&&&&&& ....   %%%%%%    ... &&&&&&&&&&&&&&&&&&&&&",
"&&&&&&&&&&&&&&&&&&&&& .   %%%%%%%%%%%%   . &&&&&&&&&&&&&&&&&&&&&",
"&&&&&&&&&&&&&&&&&&&&&   %%%%%%%%%%%%%%% .. &&&&&&&&&&&&&&&&&&&&&",
"&&&&&&&&&&&&&&&&&&&&& . %%%   %%%   %%% .. &&&&&&&&&&&&&&&&&&&&&",
"&&&&&&&&&&&&&&&&&&&&& . %% %%% % %%% %% .. &&&&&&&&&&&&&&&&&&&&&",
"&&&&&&&&&&&&&&&&&&&&& .    % %   % %    .. &&&&&&&&&&&&&&&&&&&&&",
"&&&&&&&&&&&&&&&&&&&&& . %% %%% % %%% %% .. &&&&&&&&&&&&&&&&&&&&&",
"&&&&&&&&&&&&&&&&&&&&& . %%%   % %   %%% .. &&&&&&&&&&&&&&&&&&&&&",
"&&&&&&&&&&&&&&&&&&&&& . %%%%%%% %%%%%%% .. &&&&&&&&&&&&&&&&&&&&&",
"&&&&&&&&&&&&&&&&&&&&& . %%%%%%%% %%%%%% .. &&&&&&&&&&&&&&&&&&&&&",
"&&&&&&&&&&&&&&&&&&&&& .. %%%%%  %%%%%% ... &&&&&&&&&&&&&&&&&&&&&",
"&&&&&&&&&&&&&&&&&&&&& .. %%%%%%%%%%%%% ... &&&&&&&&&&&&&&&&&&&&&",
"&&&&&&&&&&&&&&&&&&&&& ... %%%%%%%%%%% .... &&&&&&&&&&&&&&&&&&&&&",
"&&&&&&&&&&&&&&&&&&&&& ...  %%%   %%%% .... &&&&&&&&&&&&&&&&&&&&&",
"&&&&&&&&&&&&&&&&&&&&&  ...  %%%%%%%% ..... &&&&&&&&&&&&&&&&&&&&&",
"&&&&&&&&&&&&&&&&&&&&&& .....  %%%%  ...... &&&&&&&&&&&&&&&&&&&&&",
"&&&&&&&&&&&&&&&&&&&&&& .....       ....... &&&&&&&&&&&&&&&&&&&&&",
"&&&&&&&&&&&&&&&&&&&&&& ...... %%% ........ &&&&&&&&&&&&&&&&&&&&&",
"&&&&&&&&&&&&&&&&&&&&&& ...... OOO ........ &&&&&&&&&&&&&&&&&&&&&",
"&&&&&&&&&&&&&&&&&&&&&&   .    OOO          &&&&&&&&&&&&&&&&&&&&&",
"&&&&&&&&&&&&&&&&&&&&&&&&  OOOOOOOOOO    &&&&&&&&&&&&&&&&&&&&&&&&",
"&&&&&&&&&&&&&&&&&&&&&&& OOOOOOOOOOOOOOO  &&&&&&&&&&&&&&&&&&&&&&&",
"&&&&&&&&&&&&&&&&&&&&&& OOOOOOOOOOOOOOOOO  &&&&&&&&&&&&&&&&&&&&&&",
"&&&&&&&&&&&&&&&&&&&&& OOOOOOOOOOOOOOOOOOO &&&&&&&&&&&&&&&&&&&&&&",
"&&&&&&&&&&&&&&&&&&&&& OOOOOOOOOOOOOOOOOOOO &&&&&&&&&&&&&&&&&&&&&",
"&&&&&&&&&&&&&&&&&&&&& OOOOOOOOOOOOOOOOOOOO &&&&&&&&&&&&&&&&&&&&&",
"&&&&&&&&&&&&&&&&&&&&& OOO OOOOOOOOOOOO OOO &&&&&&&&&&&&&&&&&&&&&",
"&&&&&&&&&&&&&&&&&&&&& OOO OOOOOOOOOOOO OOO &&&&&&&&&&&&&&&&&&&&&",
"&&&&&&&&&&&&&&&&&&&&& OOO OOOOOOOOOOOO OOO &&&&&&&&&&&&&&&&&&&&&",
"&&&&&&&&&&&&&&&&&&&&& OOO OOOOOOOOOOOO OOO &&&&&&&&&&&&&&&&&&&&&",
"&&&&&&&&&&&&&&&&&&&&& OOO OOOOOOOOOOOO OOO &&&&&&&&&&&&&&&&&&&&&",
"&&&&&&&&&&&&&&&&&&&&& OOO OOOOOOOOOOOO OOO &&&&&&&&&&&&&&&&&&&&&",
"&&&&&&&&&&&&&&&&&&&&& OOO OOOOOOOOOOOO OOO &&&&&&&&&&&&&&&&&&&&&",
"&&&&&&&&&&&&&&&&&&&&& OOO OOOOOOOOOOOO OOO &&&&&&&&&&&&&&&&&&&&&",
"&&&&&&&&&&&&&&&&&&&&& OOO OOOOOOOOOOOO OOO &&&&&&&&&&&&&&&&&&&&&",
"&&&&&&&&&&&&&&&&&&&&& OOO OOOOOOOOOOOO OOO &&&&&&&&&&&&&&&&&&&&&",
"&&&&&&&&&&&&&&&&&&&&& OOO OOOOOOOOOOOO OOO &&&&&&&&&&&&&&&&&&&&&",
"&&&&&&&&&&&&&&&&&&&&& OOO $$$$$$$$$$$$ OOO &&&&& &&&&&&&&&&&&&&&",
"&&&&&&&&&&&&&&&&&&&&& OOO $$$$$$$$$$$$ OOO &&&& @ @ &&&&&&&&&&&&",
"&&&&&&&&&&&&&&&&&&&&& OOO $$$$$$$$$$$$ OOO &&&&@   @ &&&&&&&&&&&",
"&&&&&&&&&&&&&&&&&&&&&     $$$$    $$$$     &&#  ++   &&&&&&&&&&&",
"&&&&&&&&&&&&&&&&&&&&&& %% $$$$ && $$$$ %% &&  &@  @ &&&&&&&&&&&&",
"&&&&&&&&&&&&&&&&&&&&&  %% $$$$ && $$$$ %%   ##& @ @ &&&&&&&&&&&&",
"&&&&&&&&&&&&&&&&&&&&& %%% $$$$ && $$$$ %%%     @ + @ &&&&&&&&&&&",
"&&&&&&&&&&&&&&&&&&&&&     $$$$ && $$$$      ## @ + @ &&&&&&&&&&&",
"&&&&&&&&&&&&&&&&&&&&&&&&& $$$$ && $$$$ &&&&#  @ @ @ &&&&&&&&&&&&",
"&&&&&&&&&&&&&&&&&&&&&&&&& $$$$ && $$$$ &&&&# @   @ &&&&&&&&&&&&&",
"&&&&&&&&&&&&&&&&&&&&&&&&& $$$$ && $$$$ &&&& @ ++  &&&&&&&&&&&&&&",
"&&&&&&&&&&&&&&&&&&&&&&&&& $$$$ && $$$$ &&&& @@  @@ &&&&&&&&&&&&&",
"&&&&&&&&&&&&&&&&&&&&&&&&& $$$$ && $$$$ &&&&&  @@  &&&&&&&&&&&&&&",
"&&&&&&&&&&&&&&&&&&&&&&&&& $$$$ && $$$$ &&&&&&&  &&&&&&&&&&&&&&&&",
"&&&&&&&&&&&&&&&&&&&&&&&&& $$$$ && $$$$ &&&&&&&&&&&&&&&&&&&&&&&&&",
"&&&&&&&&&&&&&&&&&&&&&&&&& $$$$ &&  $$$ &&&&&&&&&&&&&&&&&&&&&&&&&",
"&&&&&&&&&&&&&&&&&&&&&&&&& $$$ &&&  $$$ &&&&&&&&&&&&&&&&&&&&&&&&&",
"&&&&&&&&&&&&&&&&&&&&&&&&& $$$ &&&& $$$ &&&&&&&&&&&&&&&&&&&&&&&&&",
"&&&&&&&&&&&&&&&&&&&&&&&&& $$$ &&&& $$$ &&&&&&&&&&&&&&&&&&&&&&&&&",
"&&&&&&&&&&&&&&&&&&&&&&&&& $$$ &&&& $$$ &&&&&&&&&&&&&&&&&&&&&&&&&",
"&&&&&&&&&&&&&&&&&&&&&&&&& $$$ &&&& $$$ &&&&&&&&&&&&&&&&&&&&&&&&&",
"&&&&&&&&&&&&&&&&&&&&&&&&& $$$ &&&& $$ &&&&&&&&&&&&&&&&&&&&&&&&&&",
"&&&&&&&&&&&&&&&&&&&&&&&&& $$$  &&& $$$  &&&&&&&&&&&&&&&&&&&&&&&&",
"&&&&&&&&&&&&&&&&&&&&&&&& $$$$$$ & $$$$$$ &&&&&&&&&&&&&&&&&&&&&&&",
"&&&&&&&&&&&&&&&&&&&&&&&& $$$$$$ & $$$$$$$ &&&&&&&&&&&&&&&&&&&&&&",
"&&&&&&&&&&&&&&&&&&&&&&&&  $$$$ &&& $$$$$$ &&&&&&&&&&&&&&&&&&&&&&",
"&&&&&&&&&&&&&&&&&&&&&&&&&     &&&&&      &&&&&&&&&&&&&&&&&&&&&&&",
"&&&&&&&&&&&&&&&&&&&&&&&&&&&&&&&&&&&&&&&&&&&&&&&&&&&&&&&&&&&&&&&&"
};
